<svg xmlns="http://www.w3.org/2000/svg" width="71.806" height="232.197" viewBox="0 0 71.806 232.197">
  <g id="Group_23490" data-name="Group 23490" transform="translate(-889.774 -1206.867)">
    <g id="Group_23319" data-name="Group 23319" transform="translate(920.025 1224.121)">
      <path id="Rectangle_4559" data-name="Rectangle 4559" d="M6.316,0h4.06a6.316,6.316,0,0,1,6.316,6.316V85.044a6.317,6.317,0,0,1-6.317,6.317H6.317A6.317,6.317,0,0,1,0,85.044V6.316A6.316,6.316,0,0,1,6.316,0Z" transform="translate(25.526) rotate(16.225)"/>
      <rect id="Rectangle_4560" data-name="Rectangle 4560" width="16.693" height="1.772" transform="translate(21.157 15.015) rotate(16.224)" fill="#5b7bd6"/>
      <rect id="Rectangle_4561" data-name="Rectangle 4561" width="16.693" height="1.772" transform="translate(4.612 71.873) rotate(16.224)" fill="#c10202"/>
      <path id="Path_50266" data-name="Path 50266" d="M939.8,1299.165h0a.669.669,0,0,1-.455-.829l14.8-50.877a.669.669,0,0,1,.829-.455h0a.669.669,0,0,1,.455.829l-14.8,50.877A.67.67,0,0,1,939.8,1299.165Z" transform="translate(-921.673 -1225.455)" fill="#303030"/>
      <path id="Path_50267" data-name="Path 50267" d="M935.356,1297.873h0a.67.67,0,0,1-.456-.829l14.8-50.877a.669.669,0,0,1,.829-.455h0a.669.669,0,0,1,.456.829l-14.8,50.877A.669.669,0,0,1,935.356,1297.873Z" transform="translate(-921.526 -1225.412)" fill="#303030"/>
      <path id="Path_50268" data-name="Path 50268" d="M930.916,1296.581h0a.669.669,0,0,1-.455-.829l14.8-50.877a.67.67,0,0,1,.83-.455h0a.669.669,0,0,1,.455.829l-14.8,50.877A.669.669,0,0,1,930.916,1296.581Z" transform="translate(-921.378 -1225.369)" fill="#303030"/>
    </g>
    <path id="Path_50269" data-name="Path 50269" d="M911.412,1431.621c-.364.749-6.414,5.752-7.955,7.515s.257,2.591,2.777,1.91,6-1.227,9.2-6.45a7.17,7.17,0,0,0,1.272-2.975Z" transform="translate(-0.436 -7.477)" fill="#f7d9cd"/>
    <path id="Path_50270" data-name="Path 50270" d="M903.67,1438.762c-2.341,2.105-5.654,5.963-3.542,7.117,2.643,1.445,5.227.326,8.9-2.061,1.944-1.262,5.258-5.516,5.924-6.3.589-.7.523,5.076.523,5.076h1.1l.675-9.239a2.806,2.806,0,0,0-.678-2.254c-.134-.136-.431.246-1.354,1.366-1.723,2.088-4.646,7.1-9.345,7.726C902.79,1440.555,903.67,1438.762,903.67,1438.762Z" transform="translate(-0.322 -7.459)" fill="#5b7bd6"/>
    <path id="Path_50271" data-name="Path 50271" d="M928.682,1431.621c.363.749,6.414,5.752,7.955,7.515s-.257,2.591-2.778,1.91-6-1.227-9.2-6.45a7.169,7.169,0,0,1-1.272-2.975Z" transform="translate(-1.118 -7.477)" fill="#f7d9cd"/>
    <path id="Path_50272" data-name="Path 50272" d="M936.286,1438.762c2.341,2.105,5.653,5.963,3.542,7.117-2.644,1.445-5.228.326-8.9-2.061-1.945-1.262-5.258-5.516-5.924-6.3-.59-.7-.523,5.076-.523,5.076h-1.1l-.675-9.239a2.806,2.806,0,0,1,.678-2.254c.134-.136.431.246,1.354,1.366,1.723,2.088,4.646,7.1,9.344,7.726C937.166,1440.555,936.286,1438.762,936.286,1438.762Z" transform="translate(-1.095 -7.459)" fill="#5b7bd6"/>
    <path id="Path_50273" data-name="Path 50273" d="M936.671,1304.008H902.382c-1.392,2.906-5.167,15.317-1.853,43.216s-.78,78.961-.78,83.884h19.057s-1.149-100.3.508-101.937h.427c1.657,1.642.508,101.937.508,101.937H939.3c0-4.924-4.1-55.985-.781-83.884S938.658,1306.914,936.671,1304.008Z" transform="translate(-0.314 -3.232)" fill="#303030"/>
    <path id="Path_50274" data-name="Path 50274" d="M944.844,1317.445c.722,3.771.944,9.967.674,10.775a12.888,12.888,0,0,1-3.233,3.367c-.538.269-2.559,1.211-2.693.673s.4-1.347,1.886-2.289,1.312-2.261,1.127-4.094-.723-3.044-1.263-2.1a5.662,5.662,0,0,0-.4,3.233c.135.673-.982,1.751-1.366-.4a12.676,12.676,0,0,1,0-5.522,14.276,14.276,0,0,1,1.636-3.637Z" transform="translate(-1.647 -3.679)" fill="#eaccb0"/>
    <path id="Path_50275" data-name="Path 50275" d="M895.982,1317.445c-.722,3.771-.943,9.967-.674,10.775a12.89,12.89,0,0,0,3.233,3.367c.538.269,2.559,1.211,2.693.673s-.4-1.347-1.885-2.289-1.312-2.261-1.128-4.094.724-3.044,1.263-2.1a5.661,5.661,0,0,1,.4,3.233c-.134.673.982,1.751,1.367-.4a12.707,12.707,0,0,0,0-5.522,14.3,14.3,0,0,0-1.637-3.637Z" transform="translate(-0.18 -3.679)" fill="#eaccb0"/>
    <path id="Path_50276" data-name="Path 50276" d="M927.89,1209.879c-9.082-5.975-17.764-2.216-20.822,3.921-3.583,7.189,1.466,8.662-2.885,11.98-1.433,1.092-1.939,2.82-1.367,3.933,1.113,2.162,3.675,3.716,1.79,5.08-2.853,2.067-1.613,4.834,2.483,7.472h25.459s7.453-3.4,3.638-6.514c-4.39-3.582.544-3.073.336-7-.133-2.5-2.99-3.248-2.531-6.106.689-4.288-.821-11.539-6.1-12.768Z" transform="translate(-0.426 0)" fill="#3a3a3a"/>
    <path id="Path_50277" data-name="Path 50277" d="M919.735,1278.66c1.792-6.6,13.742-28.035,13.375-28.909-.381-.909,1.164-.069-3.455-2.839s-4.006-7.721-4.047-9.13H913.7c-.042,1.409.572,6.359-4.047,9.13s-2.814,3.043-3.2,3.951c-.367.875,11.322,21.195,13.116,27.8v.7c.019-.111.052-.241.081-.366.03.126.062.255.082.366Z" transform="translate(-0.554 -1.028)" fill="#eaccb0"/>
    <path id="Path_50278" data-name="Path 50278" d="M908.938,1285.5c.05.785-.625,5.2-.746,7.613s-1.329,2.538-1.933,10.755-2.9,7.734-1.692,12.447-.363,5.2,3.021,5.438,3.142.363,3.625-1.813,4.229-13.891,4.35-16.25,1.45-.306,3.142-9.61v-30.935s-4.954-.242-6.525-2.779c-.363-.725-1.329.967-2.175,1.329s-3.061,1.128-3.746,3.263c-.528,1.647-2.456,1.933-2.94,5.156-.147.977-1.732,3.021-1.612,5.921s-1.244,6.969.4,11.158c0,0,3.907-.725,4.873-.725s.242-4.35.846-7.13.73-4.109,1.109-5.438S908.354,1276.441,908.938,1285.5Z" transform="translate(-0.383 -1.774)" fill="none"/>
    <path id="Path_50279" data-name="Path 50279" d="M920.532,1257.523a34.369,34.369,0,0,0-5.632-7.675c-2.982-2.826-3.491-3.019-3.6-3.509-.5-2.2-.232-.481-1.8.128s-13.732,5.016-14.152,5.574a2.6,2.6,0,0,0-.329.648c3.189,1.115,4.343,8.516,4.819,13.17,1.292,5.139,1.364,10.385,2.624,15.157.727,2.753-.9,17.495-.9,17.495-.324,2.165-1.371,9.5-1.371,10.7s13.93,9.426,20.41,9.426C920.589,1318.641,920.9,1258.123,920.532,1257.523Z" transform="translate(-0.174 -1.277)" fill="#f5f5f5"/>
    <path id="Path_50280" data-name="Path 50280" d="M918.965,1257.523a34.4,34.4,0,0,1,5.632-7.675c2.982-2.826,3.492-3.019,3.6-3.509.5-2.2.232-.481,1.8.128s13.732,5.016,14.152,5.574a2.632,2.632,0,0,1,.329.648c-3.189,1.115-4.343,8.516-4.82,13.17-1.292,5.139-1.364,10.385-2.624,15.157-.726,2.753.906,17.495.906,17.495.323,2.165,1.371,9.5,1.371,10.7s-13.93,9.426-20.41,9.426C918.909,1318.641,918.6,1258.123,918.965,1257.523Z" transform="translate(-0.965 -1.277)" fill="#efefef"/>
    <path id="Path_50281" data-name="Path 50281" d="M912.759,1243.164c.422-.714,1.523,1.736,7.212,6.092.737.565-3.8,2.982-3.606,4.992s-6.232-5.565-5.9-8.248C910.51,1245.6,911.68,1244.992,912.759,1243.164Z" transform="translate(-0.688 -1.203)" fill="#e2e2e2"/>
    <path id="Path_50282" data-name="Path 50282" d="M927.142,1243.164c-.422-.714-1.522,1.736-7.211,6.092-.737.565,3.8,2.982,3.606,4.992s6.232-5.565,5.9-8.248C929.392,1245.6,928.222,1244.992,927.142,1243.164Z" transform="translate(-1.001 -1.203)" fill="#e2e2e2"/>
    <path id="Path_50283" data-name="Path 50283" d="M926.648,1237.266q-.274.265-.561.517a12.419,12.419,0,0,1-1.906,1.395,9.349,9.349,0,0,1-1.836.829,8.8,8.8,0,0,1-1.793.371,8.938,8.938,0,0,1-2.282-.066,8.642,8.642,0,0,1-1.8-.491,9.762,9.762,0,0,1-1.853-.978,13.889,13.889,0,0,1-1.932-1.577c-2.546-2.458-2.524-8.671-3.139-8.232-1.4.943-2.3-1.866-2.481-3.534s.586-2.371,1.288-1.669.711-.079.908-1c.063-.295.141-.587.226-.876q.2-.666.448-1.311a16.182,16.182,0,0,1,.712-1.574,14.158,14.158,0,0,1,1.019-1.67,11.6,11.6,0,0,1,1.369-1.6,9.787,9.787,0,0,1,1.759-1.358,9.129,9.129,0,0,1,2.194-.952,9.983,9.983,0,0,1,2.755-.364,9.459,9.459,0,0,1,2.665.382,9.137,9.137,0,0,1,2.178.962,9.806,9.806,0,0,1,1.747,1.363,11.574,11.574,0,0,1,1.358,1.6,14.091,14.091,0,0,1,1.011,1.665,16.05,16.05,0,0,1,.706,1.568q.249.641.445,1.3c.083.285.16.572.221.862.2.917.205,1.7.908,1s1.464,0,1.288,1.669-1.076,4.478-2.481,3.534C929.172,1228.6,929.194,1234.808,926.648,1237.266Z" transform="translate(-0.574 -0.208)" fill="#f2d4b6"/>
    <path id="Path_50284" data-name="Path 50284" d="M914.363,1217.761c2.327.264,3.174.922,7.26,3.07,3.436,1.806,7.806,3.261,8.422,3.758.273.219.483-.813,1.529-1.118.315-.092.739-5.971-1.685-10.01-2.8-4.67-10.7-6.586-16.236-3.469-.533.3-.133.477-1.5.835-2.845.745-4.61,5.223-4.61,9.571s.552,2.477,1.186,3.732c.258.511.507-1.993,2.833-3.925Z" transform="translate(-0.591 -0.053)" fill="#3a3a3a"/>
    <path id="Path_50285" data-name="Path 50285" d="M944.047,1252.046c3.354-1.321,6.167,27.9,6.307,34.62s-4.06,27.855-4.06,29.889-6.237-.648-7.7-.767,2.938-26.882,2.449-29.683-2.931-12.12-2.748-15.221S937.74,1254.53,944.047,1252.046Z" transform="translate(-1.614 -1.502)" fill="#ddd"/>
    <g id="Group_23320" data-name="Group 23320" transform="translate(932.037 1240.976)">
      <path id="Path_50286" data-name="Path 50286" d="M939.077,1307.259c-10.381-23.04-4.519-56.433,3.247-65.109l1.109,1.584.02-.016c-3.922,5.065-12.139,32.243-3.983,58.926Z" transform="translate(-933.492 -1242.15)"/>
    </g>
    <path id="Path_50287" data-name="Path 50287" d="M896.085,1252.046c-3.355-1.321-6.167,27.9-6.307,34.62s4.06,27.855,4.06,29.889,6.236-.648,7.7-.767-2.938-26.882-2.449-29.683,2.931-12.12,2.748-15.221S902.392,1254.53,896.085,1252.046Z" transform="translate(0 -1.502)" fill="#ddd"/>
  </g>
</svg>
