<svg xmlns="http://www.w3.org/2000/svg" width="33.116" height="36.674" viewBox="0 0 33.116 36.674">
  <g id="Group_3454" data-name="Group 3454" transform="translate(-547.915 -413.529)">
    <path id="Path_6466" data-name="Path 6466" d="M547.915,441.191c0,2.639.623,4.521,1.9,5.758,1.656,1.6,4.229,1.932,7.291,1.931,1.06,0,2.179-.04,3.338-.081,1.3-.047,2.638-.095,4.026-.095,1.077,0,2.131.022,3.152.041,4.856.1,9.051.179,11.428-2.152,1.331-1.3,1.978-3.25,1.978-5.945,0-6.432-4-14.961-10.451-17.525a.648.648,0,0,0-.237-.046H558.6a.649.649,0,0,0-.237.046C552.114,425.608,547.915,434.471,547.915,441.191Zm10.815-16.83h11.488c5.265,2.169,9.53,9.442,9.53,16.288,0,2.333-.52,3.978-1.593,5.029-1.991,1.954-5.938,1.875-10.5,1.784-1.026-.019-2.087-.041-3.177-.041-1.411,0-2.763.049-4.072.1-4.214.15-7.855.281-9.692-1.492-1.018-.982-1.513-2.563-1.513-4.835C549.2,433.451,554.1,426.282,558.729,424.361Z" transform="translate(0 1.324)" fill="#e28f25"/>
    <path id="Path_6467" data-name="Path 6467" d="M558.4,423.238h10.055a.645.645,0,0,0,.469-.2c1.871-2,2.989-6.077,2.989-8.865a.642.642,0,0,0-.642-.641H555.588a.641.641,0,0,0-.641.641c0,2.788,1.118,6.867,2.989,8.865A.642.642,0,0,0,558.4,423.238Zm12.209-8.427a13.783,13.783,0,0,1-2.442,7.145h-9.479a13.77,13.77,0,0,1-2.441-7.145Z" transform="translate(0.975 0)" fill="#e28f25"/>
    <path id="Path_6468" data-name="Path 6468" d="M558.354,440.7a8.508,8.508,0,0,0,3.2.943v1.289a.641.641,0,0,0,.641.641h1.965a.642.642,0,0,0,.641-.644l-.007-1.49a4.258,4.258,0,0,0,3.269-3.707h0a3.658,3.658,0,0,0-1.789-3.74c-.2-.108-.508-.229-.894-.383a14.375,14.375,0,0,1-2.276-1.068.574.574,0,0,1-.31-.565c.05-.2.318-.244.473-.254a9.951,9.951,0,0,1,2.956.512.652.652,0,0,0,.519-.05.642.642,0,0,0,.31-.418l.475-2.112a.639.639,0,0,0-.28-.68,6.884,6.884,0,0,0-2.475-.679V427.15a.642.642,0,0,0-.642-.641h-1.964a.642.642,0,0,0-.642.641v1.463c-2.289.651-3.4,2.2-3.139,4.417.286,2.433,3.506,3.473,4.149,3.656,1.337.381,1.287.6,1.218.91-.075.33-1.191.548-2.274.324a7.306,7.306,0,0,1-1.739-.627.643.643,0,0,0-.915.369l-.741,2.3A.642.642,0,0,0,558.354,440.7Zm1.468-1.958a8.035,8.035,0,0,0,1.4.434c1.341.277,3.456.158,3.784-1.3.386-1.71-1.242-2.176-2.117-2.426-1.046-.3-3.069-1.222-3.227-2.572-.2-1.715.637-2.711,2.639-3.136a.642.642,0,0,0,.509-.627v-1.324h.682v1.082a.642.642,0,0,0,.591.64,10.549,10.549,0,0,1,2.081.37l-.211.934a9.367,9.367,0,0,0-2.771-.376,1.7,1.7,0,0,0-1.627,1.217,1.832,1.832,0,0,0,.863,1.963,15.416,15.416,0,0,0,2.491,1.178c.322.128.626.249.769.323a2.4,2.4,0,0,1,1.112,2.488,2.977,2.977,0,0,1-2.69,2.645.643.643,0,0,0-.589.643l.008,1.39h-.679v-1.232a.641.641,0,0,0-.608-.641,9.492,9.492,0,0,1-2.759-.583Z" transform="translate(1.405 1.799)" fill="#e28f25"/>
  </g>
</svg>
