<svg xmlns="http://www.w3.org/2000/svg" width="29.807" height="38.196" viewBox="0 0 29.807 38.196">
  <g id="Group_3456" data-name="Group 3456" transform="translate(-550.398 -544.029)">
    <path id="Path_6422" data-name="Path 6422" d="M551.148,562.132a.7.7,0,0,0-.2,1.374,33.184,33.184,0,0,0,7.036.817c10.042,0,15.24-5.746,18.935-11.848l2.236,1.341a.7.7,0,0,0,1.044-.713l-1.437-8.494a.7.7,0,0,0-.958-.525l-7.6,3.227a.7.7,0,0,0-.033,1.265l2.291,1.118C566.341,563.16,551.775,562.181,551.148,562.132ZM574,549.632a.7.7,0,0,0-.336-.9l-1.519-.742,5.386-2.285,1.038,6.135-1.537-.922a.7.7,0,0,0-.958.245c-3.726,6.334-8.608,11.966-18.553,11.767C562.893,561.791,570.232,558.568,574,549.632Z" transform="translate(0 0)" fill="#e28f25"/>
    <path id="Path_6423" data-name="Path 6423" d="M553.27,565.863c-1.343,0-2.4,1.313-2.4,2.987v5.236c0,1.675,1.053,2.988,2.4,2.988h3.276c1.345,0,2.4-1.314,2.4-2.988V568.85c0-1.675-1.053-2.987-2.4-2.987Zm4.281,2.987v5.236c0,.849-.47,1.6-1,1.6H553.27c-.535,0-1-.746-1-1.6V568.85c0-.849.47-1.6,1-1.6h3.276C557.082,567.255,557.551,568,557.551,568.85Z" transform="translate(0.112 5.15)" fill="#e28f25"/>
    <path id="Path_6424" data-name="Path 6424" d="M561.285,561.891c-1.343,0-2.4,1.311-2.4,2.988v10.144c0,1.675,1.053,2.988,2.4,2.988h3.277c1.343,0,2.4-1.314,2.4-2.988V564.879c0-1.677-1.053-2.988-2.4-2.988Zm4.281,2.988v10.144c0,.849-.468,1.6-1,1.6h-3.277c-.535,0-1-.746-1-1.6V564.879c0-.85.468-1.6,1-1.6h3.277C565.1,563.284,565.566,564.029,565.566,564.879Z" transform="translate(2.003 4.213)" fill="#e28f25"/>
    <path id="Path_6425" data-name="Path 6425" d="M573.369,557.125h-3.276c-1.345,0-2.4,1.311-2.4,2.987v16.035c0,1.675,1.053,2.988,2.4,2.988h3.276c1.343,0,2.4-1.314,2.4-2.988V560.112C575.765,558.436,574.712,557.125,573.369,557.125Zm1,19.022c0,.849-.47,1.6-1,1.6h-3.276c-.535,0-1-.746-1-1.6V560.112c0-.85.47-1.6,1-1.6h3.276c.535,0,1,.745,1,1.6Z" transform="translate(4.08 3.089)" fill="#e28f25"/>
  </g>
</svg>
