<svg xmlns="http://www.w3.org/2000/svg" width="288.989" height="233.434" viewBox="0 0 288.989 233.434">
  <g id="Group_23488" data-name="Group 23488" transform="translate(-21.124 -2.792)" opacity="0.03">
    <path id="Path_48506" data-name="Path 48506" d="M84.376,31.624a5.573,5.573,0,1,0-.029,11.146,5.375,5.375,0,0,0,5.569-5.563A5.363,5.363,0,0,0,84.376,31.624Z" transform="translate(109.054 54.53)" fill="#0b315e"/>
    <path id="Path_48507" data-name="Path 48507" d="M103.717,31.625a5.576,5.576,0,1,0,5.421,5.7A5.408,5.408,0,0,0,103.717,31.625Z" transform="translate(145.403 54.529)" fill="#0b315e"/>
    <path id="Path_48508" data-name="Path 48508" d="M122.859,31.624a5.575,5.575,0,1,0-.119,11.149,5.386,5.386,0,0,0,5.615-5.522A5.362,5.362,0,0,0,122.859,31.624Z" transform="translate(181.757 54.53)" fill="#0b315e"/>
    <path id="Path_48509" data-name="Path 48509" d="M36.291,52.38a5.573,5.573,0,0,0,.038-11.146,5.573,5.573,0,1,0-.038,11.146Z" transform="translate(18.176 72.706)" fill="#0b315e"/>
    <path id="Path_48510" data-name="Path 48510" d="M55.431,52.383A5.575,5.575,0,1,0,49.954,46.7,5.39,5.39,0,0,0,55.431,52.383Z" transform="translate(54.527 72.705)" fill="#0b315e"/>
    <path id="Path_48511" data-name="Path 48511" d="M74.686,41.234A5.573,5.573,0,1,0,80.3,46.742,5.392,5.392,0,0,0,74.686,41.234Z" transform="translate(90.88 72.706)" fill="#0b315e"/>
    <path id="Path_48512" data-name="Path 48512" d="M94.2,41.236A5.581,5.581,0,1,0,99.53,47.03,5.415,5.415,0,0,0,94.2,41.236Z" transform="translate(127.226 72.704)" fill="#0b315e"/>
    <path id="Path_48513" data-name="Path 48513" d="M113.284,41.234a5.575,5.575,0,1,0,5.462,5.661A5.4,5.4,0,0,0,113.284,41.234Z" transform="translate(163.581 72.705)" fill="#0b315e"/>
    <path id="Path_48514" data-name="Path 48514" d="M45.94,61.99a5.573,5.573,0,1,0-5.592-5.548A5.379,5.379,0,0,0,45.94,61.99Z" transform="translate(36.359 90.881)" fill="#0b315e"/>
    <path id="Path_48515" data-name="Path 48515" d="M59.577,56.017a5.571,5.571,0,1,0,5.956-5.164A5.43,5.43,0,0,0,59.577,56.017Z" transform="translate(72.707 90.878)" fill="#0b315e"/>
    <path id="Path_48516" data-name="Path 48516" d="M84.581,50.846A5.581,5.581,0,1,0,89.91,56.64,5.394,5.394,0,0,0,84.581,50.846Z" transform="translate(109.06 90.879)" fill="#0b315e"/>
    <path id="Path_48517" data-name="Path 48517" d="M103.484,50.844a5.572,5.572,0,1,0,5.647,5.476A5.384,5.384,0,0,0,103.484,50.844Z" transform="translate(145.411 90.881)" fill="#0b315e"/>
    <path id="Path_48518" data-name="Path 48518" d="M55.514,71.6a5.573,5.573,0,1,0-5.56-5.592A5.377,5.377,0,0,0,55.514,71.6Z" transform="translate(54.527 109.057)" fill="#0b315e"/>
    <path id="Path_48519" data-name="Path 48519" d="M74.632,60.455A5.573,5.573,0,1,0,80.3,65.9,5.4,5.4,0,0,0,74.632,60.455Z" transform="translate(90.88 109.056)" fill="#0b315e"/>
    <path id="Path_48520" data-name="Path 48520" d="M94.067,60.454a5.575,5.575,0,1,0,5.459,5.664A5.4,5.4,0,0,0,94.067,60.454Z" transform="translate(127.23 109.057)" fill="#0b315e"/>
    <path id="Path_48521" data-name="Path 48521" d="M64.92,81.218a5.58,5.58,0,1,0-5.355-5.809A5.4,5.4,0,0,0,64.92,81.218Z" transform="translate(72.699 127.231)" fill="#0b315e"/>
    <path id="Path_48522" data-name="Path 48522" d="M84.5,70.065a5.576,5.576,0,1,0,5.418,5.707A5.4,5.4,0,0,0,84.5,70.065Z" transform="translate(109.053 127.232)" fill="#0b315e"/>
    <path id="Path_48523" data-name="Path 48523" d="M74.652,79.674a5.572,5.572,0,1,0,5.653,5.47A5.4,5.4,0,0,0,74.652,79.674Z" transform="translate(90.88 145.408)" fill="#0b315e"/>
    <path id="Path_48524" data-name="Path 48524" d="M55.547,13.94a5.377,5.377,0,0,0,5.537-5.595,5.564,5.564,0,1,0-11.129.035A5.408,5.408,0,0,0,55.547,13.94Z" transform="translate(54.529 0.003)" fill="#0b315e"/>
    <path id="Path_48525" data-name="Path 48525" d="M80.309,8.762A5.577,5.577,0,1,0,69.183,7.97a5.577,5.577,0,1,0,11.126.792Z" transform="translate(90.875 0)" fill="#0b315e"/>
    <path id="Path_48526" data-name="Path 48526" d="M94.067,2.794a5.4,5.4,0,0,0-5.673,5.473,5.567,5.567,0,1,0,11.132.191A5.368,5.368,0,0,0,94.067,2.794Z" transform="translate(127.23 0.003)" fill="#0b315e"/>
    <path id="Path_48527" data-name="Path 48527" d="M46.013,23.548a5.377,5.377,0,0,0,5.456-5.673,5.561,5.561,0,1,0-11.12.2A5.393,5.393,0,0,0,46.013,23.548Z" transform="translate(36.359 18.178)" fill="#0b315e"/>
    <path id="Path_48528" data-name="Path 48528" d="M65.23,12.4a5.38,5.38,0,0,0-5.661,5.473,5.561,5.561,0,1,0,11.12.194A5.369,5.369,0,0,0,65.23,12.4Z" transform="translate(72.71 18.178)" fill="#0b315e"/>
    <path id="Path_48529" data-name="Path 48529" d="M84.406,12.4a5.377,5.377,0,0,0-5.618,5.517,5.56,5.56,0,1,0,11.12.1A5.362,5.362,0,0,0,84.406,12.4Z" transform="translate(109.062 18.178)" fill="#0b315e"/>
    <path id="Path_48530" data-name="Path 48530" d="M103.558,12.4a5.383,5.383,0,0,0-5.551,5.586,5.562,5.562,0,1,0,11.123-.035A5.363,5.363,0,0,0,103.558,12.4Z" transform="translate(145.411 18.179)" fill="#0b315e"/>
    <path id="Path_48531" data-name="Path 48531" d="M36.251,33.163a5.386,5.386,0,0,0,5.615-5.522,5.362,5.362,0,0,0-5.5-5.627,5.4,5.4,0,0,0-5.635,5.511A5.417,5.417,0,0,0,36.251,33.163Z" transform="translate(18.176 36.354)" fill="#0b315e"/>
    <path id="Path_48532" data-name="Path 48532" d="M55.474,33.163a5.384,5.384,0,0,0,5.612-5.522,5.566,5.566,0,1,0-11.132-.116A5.418,5.418,0,0,0,55.474,33.163Z" transform="translate(54.527 36.354)" fill="#0b315e"/>
    <path id="Path_48533" data-name="Path 48533" d="M74.984,22.016a5.417,5.417,0,0,0-5.809,5.34,5.572,5.572,0,1,0,11.135.457A5.378,5.378,0,0,0,74.984,22.016Z" transform="translate(90.874 36.352)" fill="#0b315e"/>
    <path id="Path_48534" data-name="Path 48534" d="M93.989,22.014a5.4,5.4,0,0,0-5.595,5.551,5.566,5.566,0,1,0,11.132.035A5.361,5.361,0,0,0,93.989,22.014Z" transform="translate(127.23 36.354)" fill="#0b315e"/>
    <path id="Path_48535" data-name="Path 48535" d="M113.243,22.014a5.4,5.4,0,0,0-5.629,5.517,5.566,5.566,0,1,0,11.132.107A5.364,5.364,0,0,0,113.243,22.014Z" transform="translate(163.581 36.354)" fill="#0b315e"/>
    <path id="Path_48536" data-name="Path 48536" d="M26.647,42.773a5.384,5.384,0,0,0,5.609-5.525,5.364,5.364,0,0,0-5.5-5.624,5.575,5.575,0,1,0-.107,11.149Z" transform="translate(0 54.53)" fill="#0b315e"/>
    <path id="Path_48537" data-name="Path 48537" d="M45.7,42.778a5.4,5.4,0,0,0,5.783-5.355,5.572,5.572,0,1,0-11.135-.457A5.441,5.441,0,0,0,45.7,42.778Z" transform="translate(36.347 54.528)" fill="#0b315e"/>
    <path id="Path_48538" data-name="Path 48538" d="M65.225,31.624a5.575,5.575,0,1,0-.171,11.149,5.388,5.388,0,0,0,5.641-5.5A5.366,5.366,0,0,0,65.225,31.624Z" transform="translate(72.703 54.53)" fill="#0b315e"/>
  </g>
</svg>
