<svg xmlns="http://www.w3.org/2000/svg" width="36.294" height="43.653" viewBox="0 0 36.294 43.653">
  <g id="Group_3455" data-name="Group 3455" transform="translate(-997.243 -732.139)">
    <rect id="Rectangle_40" data-name="Rectangle 40" width="3.797" height="1.316" transform="translate(1004.137 757.055)" fill="#e28f25"/>
    <path id="Path_6231" data-name="Path 6231" d="M1028.724,761.266a4.881,4.881,0,0,0-3.2,1.188v-3.2a5.038,5.038,0,0,0-5.549-5.373,5.606,5.606,0,0,0-4.138,1.5,5.8,5.8,0,0,0-1.528,3.97V763.9a4.026,4.026,0,0,1-6.664,2.634,3.888,3.888,0,0,1-.961-2.666v-4.522h1.288a1,1,0,0,0,1.017-.983V757.13h2.129a2.311,2.311,0,0,0,1.7-.719l1.538-1.684a1.809,1.809,0,0,0,.486-1.219V734.991a2.077,2.077,0,0,0-2.19-1.94h-2.724a1.031,1.031,0,0,0-1.036-.894h-2.958v-.018h-1.171v.018h-2.646a1.031,1.031,0,0,0-1.035.894h-1.656a2.078,2.078,0,0,0-2.191,1.94v18.517a1.807,1.807,0,0,0,.488,1.219l1.536,1.684a2.312,2.312,0,0,0,1.705.719h2.129v1.234a1,1,0,0,0,1.017.983h1.4v4.473a5.221,5.221,0,0,0,8.728,3.481,4.894,4.894,0,0,0,1.241-3.454l0-4.512a4.754,4.754,0,0,1,1.207-3.173,4.479,4.479,0,0,1,3.288-1.145,3.9,3.9,0,0,1,4.377,4.19v3.319a4.865,4.865,0,0,0-3.27-1.259,4.738,4.738,0,0,0-4.815,4.648,4.487,4.487,0,0,0,.275,1.543,4.632,4.632,0,0,0,.892,1.485h0a4.436,4.436,0,0,0,.5.482l0,0,6.4,6.134a.611.611,0,0,0,.2.13l.143.057a.639.639,0,0,0,.468,0l.143-.057a.611.611,0,0,0,.2-.13l6.634-6.363.007-.009a4.658,4.658,0,0,0,1.117-1.7,4.473,4.473,0,0,0,.284-1.576h0A4.737,4.737,0,0,0,1028.724,761.266Zm-28.272-18.1-.2,0-.893.019-.4.01-.023,0v-1.092l.042,0,.135,0,.276-.005,1.082-.026a.509.509,0,0,0,.338-.137.459.459,0,0,0,.147-.319.436.436,0,0,0-.464-.434l-.2,0-.142,0-1.151.025-.063.007v-1.09l.1.007,2.455-.056a.506.506,0,0,0,.338-.137.454.454,0,0,0,.147-.318.435.435,0,0,0-.463-.435l-2.455.056-.118.018V738.16l.042,0,1.493-.032a.516.516,0,0,0,.338-.139.452.452,0,0,0,.147-.318.437.437,0,0,0-.464-.435l-1.493.035-.063.006V735.37h14.219v9.345H998.938V744.1h0l.142,0,.276-.007,1.074-.024a.514.514,0,0,0,.34-.137.455.455,0,0,0,.145-.318A.434.434,0,0,0,1000.453,743.171Zm.652,11.956-1.747-2.168-.276-.34-.144-.179v-.425l.144,0,.276-.006,1.994-.047a.505.505,0,0,0,.338-.137.448.448,0,0,0,.146-.319.434.434,0,0,0-.463-.433l-.2,0-1.818.041-.419.01v-1.1h0l.142,0,.276-.007,1.074-.023a.525.525,0,0,0,.34-.138.457.457,0,0,0,.145-.318.435.435,0,0,0-.464-.434l-.2,0-.895.021-.4.008-.023,0v-1.092l.042,0,.1,0,.276-.006,1.116-.026a.5.5,0,0,0,.338-.137.452.452,0,0,0,.147-.318.436.436,0,0,0-.464-.434l-.2,0-.934.021-.356.008-.063.007v-1.09l.1.007h.047l.276-.006,2.132-.049a.514.514,0,0,0,.1-.021h11.567v6.433l-2.167,2.687H1001.1Zm3.032,3.245v-1.316h3.8v1.316Zm27.95,8.713h0a3.48,3.48,0,0,1-.834,1.266l-.008.01-6.331,6.073-6.1-5.854-.035-.031a3.7,3.7,0,0,1-.4-.385,3.433,3.433,0,0,1-.662-1.1h0a3.345,3.345,0,0,1-.2-1.144,3.384,3.384,0,0,1,1.048-2.441,3.643,3.643,0,0,1,5.314.294v0a3.48,3.48,0,0,1,.471.727.629.629,0,0,0,1.127,0,3.4,3.4,0,0,1,.53-.806,3.652,3.652,0,0,1,5.252-.212,3.383,3.383,0,0,1,1.049,2.441A3.329,3.329,0,0,1,1032.087,767.085Z" transform="translate(0)" fill="#e28f25"/>
  </g>
</svg>
