<svg xmlns="http://www.w3.org/2000/svg" width="38.542" height="44.539" viewBox="0 0 38.542 44.539">
  <g id="Group_3454" data-name="Group 3454" transform="translate(-997.294 -861.309)">
    <path id="Path_6198" data-name="Path 6198" d="M998.086,898.218a15.476,15.476,0,0,1,3.158.546l.261.1c.026.009.053.018.08.025,2.937.725,8.886,2.226,17.2,4.343l.058.016.046.011a3.649,3.649,0,0,0,.691.068,3.469,3.469,0,0,0,1.155-.2l.035-.013.1-.037a.776.776,0,0,0,.226-.114l13.1-9.5a3.2,3.2,0,0,0,.693-.511l.032-.034a3.079,3.079,0,0,0-1.879-5.252,2.79,2.79,0,0,0-.961-.014,2.651,2.651,0,0,0-.4.087,3.477,3.477,0,0,0-.707.325.628.628,0,0,0-.078.049l-1.439,1.041-7.892,5.117a2.46,2.46,0,0,1-.38.013c-.467-.114-2.148-.554-5-1.309l-.126-.033c-.641-.185-1.3-.358-1.924-.51-.883-.233-1.583-.419-1.864-.494a1.376,1.376,0,0,1,.46-2.516h5.029a2.219,2.219,0,1,0,0-4.437h-5.432c-.7-.02-1.58-.031-2.66-.031a9.672,9.672,0,0,0-5.777,2c-.348.242-.684.492-1.018.74-1.534,1.138-2.858,2.12-4.808,2.12a.779.779,0,0,0-.769.91l-.011,6.109a.736.736,0,0,0,.011.142v.474A.779.779,0,0,0,998.086,898.218Zm.779-2.2v-4.7a10.077,10.077,0,0,0,4.947-2.383c.322-.239.646-.48.981-.713a8.121,8.121,0,0,1,4.885-1.717c1.066,0,1.928.01,2.637.03h5.455a.659.659,0,1,1,0,1.318h-5.1a.811.811,0,0,0-.127.01,2.936,2.936,0,0,0-.942,5.475.716.716,0,0,0,.174.071c.161.044.942.251,1.986.527.625.151,1.256.319,1.889.5l.143.038c3.073.812,4.745,1.249,5.113,1.336a.794.794,0,0,0,.136.019,3.412,3.412,0,0,0,1.017-.077.8.8,0,0,0,.237-.1l8.033-5.208.034-.024,1.413-1.022.019-.012a1.242,1.242,0,0,1,.132-.073,1.28,1.28,0,0,1,.212-.09,1.171,1.171,0,0,1,.174-.037,1.29,1.29,0,0,1,.46.009.632.632,0,0,0,.091.012,1.526,1.526,0,0,1,1.409,1.524,1.511,1.511,0,0,1-.457,1.078l-.015.016a1.6,1.6,0,0,1-.374.269.753.753,0,0,0-.1.064l-.554.4-12.5,9.064-.058.022a1.85,1.85,0,0,1-1,.079l-.038-.009c-8.286-2.109-14.222-3.608-17.178-4.337l-.255-.094a.844.844,0,0,0-.081-.025,22.531,22.531,0,0,0-2.808-.554Z" transform="translate(0 2.527)" fill="#e28f25"/>
    <path id="Path_6199" data-name="Path 6199" d="M1012.129,889.348h12.517a2.828,2.828,0,0,0,2.824-2.824v-6.181l.422.423a.91.91,0,0,0,1.286,0l1.119-1.12h0a2.956,2.956,0,0,0,0-4.175l-8.636-8.635a.665.665,0,0,0-.064-.072l-1.12-1.119a2.96,2.96,0,0,0-4.182,0l-1.119,1.119c-.021.021-.041.043-.059.065l-8.641,8.641a2.958,2.958,0,0,0,0,4.175l1.12,1.12a.91.91,0,0,0,1.286,0l.422-.423v6.181A2.828,2.828,0,0,0,1012.129,889.348Zm8.466-3.152h-4.416V880.52h4.416Zm5.06.328a1.01,1.01,0,0,1-1.008,1.008h-2.339a.912.912,0,0,0,.1-.426v-7.495a.908.908,0,0,0-.908-.908h-6.234a.909.909,0,0,0-.908.908v7.495a.9.9,0,0,0,.106.426h-2.339a1.009,1.009,0,0,1-1.008-1.008v-8l7.266-7.266,4.639,4.64h0l2.628,2.626Zm-17.414-7.686-.478-.477a1.137,1.137,0,0,1,0-1.607l8.7-8.7c.022-.021.041-.043.06-.064l1.058-1.059a1.171,1.171,0,0,1,1.612,0l1.052,1.052a.652.652,0,0,0,.064.071l8.7,8.7a1.137,1.137,0,0,1,0,1.607l-.477.477-9.506-9.506a.91.91,0,0,0-1.286,0Z" transform="translate(1.043 -3.471)" fill="#e28f25"/>
  </g>
</svg>
