<svg xmlns="http://www.w3.org/2000/svg" width="37.406" height="39.427" viewBox="0 0 37.406 39.427">
  <g id="Group_2879" data-name="Group 2879" transform="translate(-158.479 -542.006)">
    <path id="Path_5822" data-name="Path 5822" d="M160.824,565.515a2.153,2.153,0,0,1,4.307,0,.913.913,0,0,0,.1.411,4,4,0,0,0,7.927-.223.937.937,0,0,0,.019-.188,2.153,2.153,0,1,1,4.306,0,.928.928,0,0,0,.1.411,4,4,0,0,0,7.927-.223.939.939,0,0,0,.019-.188,2.153,2.153,0,1,1,4.306,0,.923.923,0,0,0,.922.922h0a.923.923,0,0,0,.924-.922,4,4,0,0,0-7.978-.38.937.937,0,0,0-.018.188,2.153,2.153,0,0,1-4.307,0,.9.9,0,0,0-.1-.41,4,4,0,0,0-7.927.222.936.936,0,0,0-.019.188,2.153,2.153,0,0,1-4.306,0,.905.905,0,0,0-.1-.41,4,4,0,0,0-7.947.6.922.922,0,0,0,1.845,0Z" transform="translate(0 2.506)" fill="none" stroke="#e28f25" stroke-width="1"/>
    <path id="Path_5823" data-name="Path 5823" d="M185.068,546.5v3.577h-9.656V546.5a2.361,2.361,0,0,1,4.7,0,.922.922,0,0,0,1.845,0,4.2,4.2,0,0,0-8.394,0V561.38a.923.923,0,0,0,1.846,0V558.2h9.656v3.178a.922.922,0,1,0,1.845,0V546.5a2.361,2.361,0,0,1,4.7,0,.923.923,0,0,0,1.846,0,4.2,4.2,0,0,0-8.394,0Zm-9.656,9.851v-4.43h9.656v4.43Z" transform="translate(1.923)" fill="none" stroke="#e28f25" stroke-width="1"/>
    <path id="Path_5824" data-name="Path 5824" d="M187.681,569.561a4,4,0,0,0-3.98,3.619.929.929,0,0,0-.018.188,2.153,2.153,0,0,1-4.307,0,.914.914,0,0,0-.1-.411,4,4,0,0,0-7.927.223.927.927,0,0,0-.019.188,2.153,2.153,0,0,1-4.306,0,.915.915,0,0,0-.1-.411,4,4,0,0,0-7.947.6.922.922,0,0,0,1.845,0,2.153,2.153,0,0,1,4.307,0,.905.905,0,0,0,.1.41,4,4,0,0,0,7.927-.222.929.929,0,0,0,.019-.188,2.153,2.153,0,0,1,4.306,0,.92.92,0,0,0,.1.41,4,4,0,0,0,7.927-.222.931.931,0,0,0,.019-.188,2.153,2.153,0,0,1,4.306,0,.923.923,0,0,0,.922.922h0a.923.923,0,0,0,.924-.922,4.007,4.007,0,0,0-4-4Z" transform="translate(0 3.567)" fill="none" stroke="#e28f25" stroke-width="1"/>
  </g>
</svg>
