<svg id="Group_23440" data-name="Group 23440" xmlns="http://www.w3.org/2000/svg" width="356.245" height="98.968" viewBox="0 0 356.245 98.968">
  <g id="Group_23438" data-name="Group 23438">
    <path id="Path_50593" data-name="Path 50593" d="M459,431.544a10.73,10.73,0,0,0,0-1.86l.024-10.175-5.709,0c-.4-.382-.817-.764-1.259-1.146C429.574,399,355.1,386.674,280.929,386.674S132.284,399,109.8,418.359c-.341.294-.653.588-.971.882l-6.018,0,.076,10.141a10.992,10.992,0,0,0,.021,2.719v.01h0c2.9,21.793,70.406,41.847,178.021,41.847,108.436,0,176.137-20.362,178.064-42.347h0Z" transform="translate(-102.806 -374.985)" fill="#3a325e"/>
    <path id="Path_50594" data-name="Path 50594" d="M279.542,378.065c-70.848,0-141.977,11.772-163.453,30.265-29.13,25.086,39.15,53.1,163.453,53.1s192.585-28.013,163.452-53.1C421.518,389.837,350.39,378.065,279.542,378.065Z" transform="translate(-101.419 -376.794)" fill="#fff"/>
    <g id="Group_23437" data-name="Group 23437">
      <path id="Path_50595" data-name="Path 50595" d="M280.929,377.015c-74.175,0-148.645,12.323-171.13,31.685-30.5,26.263,40.988,55.593,171.13,55.593s201.63-29.33,171.129-55.593C429.574,389.338,355.105,377.015,280.929,377.015Zm0,66.375c-94.61,0-152.6-19.346-134.46-38.072,14.283-14.747,73.36-24.585,134.46-24.585s120.177,9.838,134.46,24.585C433.524,424.044,375.54,443.39,280.929,443.39Z" transform="translate(-102.807 -377.015)" fill="#e28f25"/>
      <path id="Path_50596" data-name="Path 50596" d="M267.68,383.521c-47.788,0-92.27,7.908-100.461,19.229-9.791,13.529,34.359,26.6,100.461,26.6s110.25-13.073,100.462-26.6C359.95,391.429,315.468,383.521,267.68,383.521Zm0,36.92c-46.836,0-80.762-8.936-76.266-18.847,4.027-8.865,38.015-15.394,76.266-15.394s72.236,6.529,76.263,15.394C348.441,411.505,314.516,420.441,267.68,420.441Z" transform="translate(-89.557 -375.648)" fill="#e28f25"/>
      <path id="Path_50597" data-name="Path 50597" d="M302.221,398.1c1.355,5.625-18.533,10.445-44.484,10.445s-45.844-4.82-44.488-10.445c1.278-5.3,21.169-9.383,44.488-9.383S300.945,392.8,302.221,398.1Z" transform="translate(-79.614 -374.557)" fill="#e28f25"/>
    </g>
  </g>
  <g id="Group_23439" data-name="Group 23439" transform="translate(176.454 2.421)">
    <path id="Path_50598" data-name="Path 50598" d="M251.507,401.009l69.809-20.638q-6.871-.748-13.947-1.355L249.8,399.638c-.361.123-2.072.735-.582,1.024A9.947,9.947,0,0,0,251.507,401.009Z" transform="translate(-248.622 -379.016)" fill="#939598" opacity="0.4" style="mix-blend-mode: multiply;isolation: isolate"/>
  </g>
</svg>
