<svg xmlns="http://www.w3.org/2000/svg" width="38.589" height="37.682" viewBox="0 0 38.589 37.682">
  <g id="Group_3459" data-name="Group 3459" transform="translate(0 0)">
    <g id="Group_2371" data-name="Group 2371" transform="translate(11.642 32.847)">
      <path id="Path_4824" data-name="Path 4824" d="M32.287,96.706a.656.656,0,0,0-.658.657.645.645,0,0,0,.658.658.656.656,0,0,0,.658-.658A.668.668,0,0,0,32.287,96.706Z" transform="translate(-31.629 -96.706)" fill="#e28f25"/>
    </g>
    <g id="Group_2372" data-name="Group 2372" transform="translate(30.324 32.847)">
      <path id="Path_4825" data-name="Path 4825" d="M33.338,96.706a.668.668,0,0,0-.658.657.658.658,0,1,0,1.315,0A.668.668,0,0,0,33.338,96.706Z" transform="translate(-32.68 -96.706)" fill="#e28f25"/>
    </g>
    <g id="Group_2373" data-name="Group 2373" transform="translate(25.969 24.671)">
      <path id="Path_4826" data-name="Path 4826" d="M35.794,96.246H33.021a.6.6,0,0,0,0,1.191h2.773a.6.6,0,1,0,0-1.191Z" transform="translate(-32.435 -96.246)" fill="#e28f25"/>
    </g>
    <g id="Group_2374" data-name="Group 2374" transform="translate(0 0)">
      <path id="Path_4827" data-name="Path 4827" d="M69.563,120.471v-.089l-.018-2.222A2.541,2.541,0,0,0,67,115.619h-1.28l-3.359-8.6A2.507,2.507,0,0,0,60,105.4H57.938a11.174,11.174,0,0,0-2.808-6.825l-.036-.053-.089-.053A11.055,11.055,0,0,0,35.791,105.4H33.516a2.541,2.541,0,0,0-2.542,2.542v18.343a2.541,2.541,0,0,0,2.542,2.542h5.6a4.176,4.176,0,0,0,8.3,0H57.8a4.186,4.186,0,0,0,8.318,0h.906a2.541,2.541,0,0,0,2.542-2.542v-5.812Zm-1.173,3.448h-.373a1.431,1.431,0,1,1,0-2.862h.373Zm-21.525-8a9.883,9.883,0,0,1-6.95-2.826l7.163-6.506c1.991.071,2.417,1.3,2.417,2.311a2.5,2.5,0,0,1-2.631,2.346,2.75,2.75,0,0,1-1.742-.586.56.56,0,0,0-.818.107.574.574,0,0,0,.107.818,4.074,4.074,0,0,0,1.866.782v1.066a.587.587,0,1,0,1.173,0v-1.066a3.618,3.618,0,0,0,3.217-3.466,3.247,3.247,0,0,0-2.471-3.342l6.4-5.812a9.935,9.935,0,0,1-7.732,16.175Zm0-19.872A9.81,9.81,0,0,1,53.8,98.875l-7.163,6.506c-1.973-.089-2.4-1.3-2.4-2.329a2.481,2.481,0,0,1,2.631-2.311,2.841,2.841,0,0,1,1.742.569.588.588,0,0,0,.818-.089.612.612,0,0,0-.107-.836,4.152,4.152,0,0,0-1.866-.782V98.52a.587.587,0,1,0-1.173,0V99.6a3.615,3.615,0,0,0-3.217,3.448,3.234,3.234,0,0,0,2.471,3.342l-6.4,5.83a9.935,9.935,0,0,1,7.732-16.175Zm-3.59,35.318a3.013,3.013,0,1,1,3-3A2.989,2.989,0,0,1,43.274,131.367Zm10.576-3.715H47.38a4.176,4.176,0,0,0-8.23,0H33.516a1.384,1.384,0,0,1-1.386-1.369v-4.408H53.85ZM32.129,120.72V107.94a1.4,1.4,0,0,1,1.386-1.369h2.275a10.882,10.882,0,0,0,2.808,6.808l.036.071.071.053a11.105,11.105,0,0,0,15.144,1.1v6.114Zm29.826,10.647a3.013,3.013,0,1,1,3-3A3,3,0,0,1,61.955,131.367Zm5.066-3.715h-.96a4.176,4.176,0,0,0-8.23,0H55.023V113.486a11.053,11.053,0,0,0,2.915-6.914H60a1.367,1.367,0,0,1,1.28.871l3.2,8.176h-6.95a.6.6,0,0,0-.586.6.588.588,0,0,0,.586.569H67a1.381,1.381,0,0,1,1.369,1.368l.018,1.742h-.373A2.587,2.587,0,0,0,65.4,122.48a2.617,2.617,0,0,0,2.613,2.613h.391v1.191A1.373,1.373,0,0,1,67.021,127.652Z" transform="translate(-30.974 -94.858)" fill="#e28f25"/>
    </g>
  </g>
</svg>
