<svg id="Group_23533" data-name="Group 23533" xmlns="http://www.w3.org/2000/svg" width="174.908" height="109.371" viewBox="0 0 174.908 109.371">
  <g id="Group_403" data-name="Group 403" transform="translate(55.996)">
    <path id="Path_2264" data-name="Path 2264" d="M2671.969,629.269a20.115,20.115,0,1,0-25.036-22.179A20.119,20.119,0,0,0,2671.969,629.269Z" transform="translate(-2639.1 -589.717)" fill="#e28f25"/>
    <path id="Path_2265" data-name="Path 2265" d="M2672.722,679.521a20.044,20.044,0,0,1-28.14,1.727,30.712,30.712,0,0,0-14.894,28.246l1.433,23.431v.02a13.234,13.234,0,0,0,14.051,12.154l34.967-2.139a13.063,13.063,0,0,0,12.236-13.782l-1.434-23.431A30.72,30.72,0,0,0,2672.722,679.521Z" transform="translate(-2629.63 -639.356)" fill="#e28f25"/>
  </g>
  <g id="Group_404" data-name="Group 404" transform="translate(124.215 16.047)">
    <path id="Path_2266" data-name="Path 2266" d="M2817.157,657.3a16.256,16.256,0,1,0-20.93-18.544A16.124,16.124,0,0,0,2817.157,657.3Z" transform="translate(-2789.785 -625.596)" fill="#3a325e"/>
    <path id="Path_2267" data-name="Path 2267" d="M2816.963,698.81a16.194,16.194,0,0,1-22.728,1.392,24.806,24.806,0,0,0-12.03,22.812l1.157,18.923v.017a10.7,10.7,0,0,0,11.36,9.815l28.035-1.715a10.7,10.7,0,0,0,10.078-11.127c0-.005,0-.012,0-.017l-1.157-18.922A24.807,24.807,0,0,0,2816.963,698.81Z" transform="translate(-2782.159 -666.065)" fill="#3a325e"/>
  </g>
  <g id="Group_405" data-name="Group 405" transform="translate(0 23.647)">
    <path id="Path_2268" data-name="Path 2268" d="M2539.428,674.3a16.256,16.256,0,1,0-20.93-18.547A16.13,16.13,0,0,0,2539.428,674.3Z" transform="translate(-2512.056 -642.589)" fill="#3a325e"/>
    <path id="Path_2269" data-name="Path 2269" d="M2539.232,715.8a16.192,16.192,0,0,1-22.727,1.392,24.805,24.805,0,0,0-12.029,22.813l1.158,18.922v.017A10.7,10.7,0,0,0,2517,768.76l28.034-1.715a10.7,10.7,0,0,0,10.078-11.127V755.9l-1.158-18.922A24.8,24.8,0,0,0,2539.232,715.8Z" transform="translate(-2504.429 -683.057)" fill="#3a325e"/>
  </g>
</svg>
