<svg xmlns="http://www.w3.org/2000/svg" width="68.949" height="219.584" viewBox="0 0 68.949 219.584">
  <g id="Group_23337" data-name="Group 23337" transform="translate(-270.394 -341.269)">
    <path id="Path_48965" data-name="Path 48965" d="M292.552,577.215c-2.218,2.935-3.544,3.118-5.869,3.937-3.1,1.091-4.725.572-4.407,4.724.186,2.429,4.689,2.849,8.665,2.215,2.922-.466,5.494-1.854,6.191-1.642a2.111,2.111,0,0,0,2,.644c1.361-.071,2.863-.286,3.078-.787a19.635,19.635,0,0,0,0-6.513,15.524,15.524,0,0,1-.644-2.577Z" transform="translate(-1.38 -27.501)"/>
    <path id="Path_48966" data-name="Path 48966" d="M319.428,577.215c2.219,2.935,3.545,3.118,5.869,3.937,3.1,1.091,4.726.572,4.407,4.724-.186,2.429-4.688,2.849-8.665,2.215-2.922-.466-5.494-1.854-6.191-1.642a2.111,2.111,0,0,1-2,.644c-1.36-.071-2.863-.286-3.078-.787a19.632,19.632,0,0,1,0-6.513,15.486,15.486,0,0,0,.645-2.577Z" transform="translate(-4.557 -27.501)"/>
    <path id="Path_48967" data-name="Path 48967" d="M319.2,443.231H290.313c-3.534,5.049-5.885,17.758-3.728,43.6,2.312,27.691,2.715,51.133,4.454,75.355h11.818s.278-93.908,1.792-95.423h.216c1.515,1.515,1.793,95.423,1.793,95.423h11.819c1.739-24.222,2.142-47.664,4.454-75.355C325.088,460.989,322.735,448.28,319.2,443.231Z" transform="translate(-1.791 -11.884)"/>
    <path id="Path_48968" data-name="Path 48968" d="M305.015,413.186c2-6.689,15.314-28.4,14.9-29.291-.425-.921,1.3-.069-3.85-2.876s-4.766-7.823-4.811-9.25H298.6c-.045,1.427.329,6.443-4.819,9.25s-3.135,3.083-3.56,4c-.41.886,12.616,21.475,14.614,28.164v.7c.022-.112.058-.244.091-.371.034.127.07.259.092.371Z" transform="translate(-2.305 -3.555)" fill="#f7ddcb"/>
    <path id="Path_48969" data-name="Path 48969" d="M295.8,380.929c-1.494.664-11.326,3.066-6.345,10.741s14.625,18.613,24.6,6.9c12.7-14.914,3.355-14.955.45-17.5-2.841-2.489-9.771,8.149-9.771,8.149Z" transform="translate(-2.059 -4.595)" fill="#9baec9"/>
    <g id="Group_23152" data-name="Group 23152" transform="translate(297.649 380.153)">
      <path id="Path_48970" data-name="Path 48970" d="M307.416,392.467H304.98c-.238.96-3.705,23.365-3.735,26.179-.026,2.449,3.371,9.787,4.98,10.481,1.609-.694,4.952-8.032,4.926-10.481C311.122,415.832,307.653,393.427,307.416,392.467Z" transform="translate(-301.245 -386.12)" fill="#9d2b3b"/>
      <path id="Path_48971" data-name="Path 48971" d="M309.373,387.822c-.03-.349-.66-.845-.927-1.1a8.264,8.264,0,0,0-1.74-1.438h-.481a8.239,8.239,0,0,0-1.74,1.438c-.267.255-.9.752-.927,1.1-.125,1.448.681,2.26,1.389,3.846a.618.618,0,0,0,.3.279,1.067,1.067,0,0,0,.411.08l.66.043v.019l.149-.01.149.01v-.019l.659-.043a1.064,1.064,0,0,0,.411-.08.618.618,0,0,0,.3-.279C308.692,390.082,309.5,389.27,309.373,387.822Z" transform="translate(-301.513 -385.283)" fill="#9d2b3b"/>
    </g>
    <path id="Path_48972" data-name="Path 48972" d="M297.666,377.654c.454-.769,1.637,1.867,7.755,6.552.792.607-4.081,3.207-3.877,5.368s-6.7-5.984-6.349-8.87C295.246,380.272,296.5,379.618,297.666,377.654Z" transform="translate(-2.889 -4.225)" fill="#c1d4f2"/>
    <path id="Path_48973" data-name="Path 48973" d="M314.674,377.654c-.454-.769-1.637,1.867-7.755,6.552-.792.607,4.082,3.207,3.877,5.368s6.7-5.984,6.349-8.87C317.094,380.272,315.836,379.618,314.674,377.654Z" transform="translate(-4.247 -4.225)" fill="#c1d4f2"/>
    <path id="Path_48974" data-name="Path 48974" d="M316.012,358.614c-.655.655-.663-.074-.845-.928a.31.31,0,0,0,.171-.126h-.2l-.007-.026v-5.006A5.184,5.184,0,0,0,314.7,352c-.495-.54-9.574-.46-14.644-.225h-1.371c-.022.025-.041.053-.062.078-.727.047-1.293.1-1.615.148a2.078,2.078,0,0,0-1.2.566v4.512l.115,0c-.057.2-.111.4-.155.6-.183.853-.191,1.582-.845.928s-1.364,0-1.2,1.554,1,4.172,2.312,3.293c.572-.409.552,5.379,2.924,7.67a12.935,12.935,0,0,0,1.8,1.468,9.134,9.134,0,0,0,1.726.912,8.023,8.023,0,0,0,1.679.457,8.321,8.321,0,0,0,2.126.062,8.166,8.166,0,0,0,1.67-.346,8.558,8.558,0,0,0,1.71-.772,11.481,11.481,0,0,0,1.777-1.3c.178-.156.352-.316.522-.481,2.373-2.291,2.352-8.079,2.925-7.67,1.308.879,2.148-1.739,2.311-3.293S316.666,357.959,316.012,358.614Z" transform="translate(-2.717 -1.204)" fill="#ffe6d4"/>
    <path id="Path_48975" data-name="Path 48975" d="M294.5,357.721c-.467-.529-1.052-5.287-1.286-6.767s-1.637-2.431-.818-3.172-.585-1.48.467-1.8,2.807-2.326,5.145-3.49,6.548-1.8,11.342-.528,4.21,4.229,4.911,4.229,2.338,1.8,2.338,2.854.585,7.93-1.052,8.881c0,0-.819,3.384-1.17,3.278s-.2-3.159.351-6.734c.585-3.806-4.092-2.148-7.366-2.253s-10.85-.745-11.434,1.053.558,7.227.091,7.438S294.966,358.249,294.5,357.721Z" transform="translate(-2.535 0)" fill="#534d46"/>
    <path id="Path_48976" data-name="Path 48976" d="M306.962,413.86s10.837-29.493,11.186-30.727c.586-2.073,2.9-.2,6.21,1.143s8.655,2.217,8.241,2.838a19.539,19.539,0,0,0-4.306,10.829c-.311,6.11-1.791,17.7-3.448,23.7-.457,1.656,0,6.284,0,6.284.145,5.007,2.253,27.187,2.682,29.619s-13.624,1.455-13.624,1.455-6.928-.365-6.94-9.09C306.961,449.57,306.962,413.86,306.962,413.86Z" transform="translate(-4.262 -4.772)" fill="#191819"/>
    <path id="Path_48977" data-name="Path 48977" d="M322.452,387.339c-.813-.605-.875-1.867-2.026-3.925a9.071,9.071,0,0,0-2.607-2.6c-1-.847-1.5-.715-1.5-.715a1.392,1.392,0,0,1,.718,1.46c-.017.332.565,1.628-1.657,4.9-1.928,2.841-7.962,23.313-8.449,27.391.813-1.334,3.413-6.359,4.159-7.667,1.02-1.788,2.846-4.923,3.576-6.008,2.075-3.089,5.951-8.364,5.951-8.364l-4.506-3.4S323.265,387.944,322.452,387.339Z" transform="translate(-4.259 -4.525)"/>
    <path id="Path_48978" data-name="Path 48978" d="M306.24,421.894s-12.909-37.709-13.258-38.943c-.586-2.073-2.9-.2-6.21,1.143s-8.655,2.217-8.241,2.838a19.539,19.539,0,0,1,4.306,10.829c.311,6.109,1.791,17.7,3.448,23.7.457,1.656,0,6.284,0,6.284-.145,5.006-2.253,27.188-2.682,29.62s13.624,1.454,13.624,1.454,8.974-1.151,8.986-9.877C306.216,448.6,306.24,421.894,306.24,421.894Z" transform="translate(-0.946 -4.75)" fill="#222123"/>
    <path id="Path_48979" data-name="Path 48979" d="M289.166,387.339c.813-.605.875-1.867,2.026-3.925a9.093,9.093,0,0,1,2.607-2.6c1-.847,1.5-.715,1.5-.715a1.39,1.39,0,0,0-.717,1.46c.016.332-.566,1.628,1.656,4.9,1.928,2.841,10.751,31.127,11.238,35.2-.813-1.333-6.2-14.172-6.948-15.481-1.02-1.788-2.846-4.923-3.576-6.008-2.075-3.089-5.95-8.364-5.95-8.364l4.5-3.4S288.353,387.944,289.166,387.339Z" transform="translate(-2.181 -4.525)"/>
    <circle id="Ellipse_53" data-name="Ellipse 53" cx="1.144" cy="1.144" r="1.144" transform="translate(301.339 421.951)"/>
    <circle id="Ellipse_54" data-name="Ellipse 54" cx="1.144" cy="1.144" r="1.144" transform="translate(301.339 430.523)"/>
    <rect id="Rectangle_4483" data-name="Rectangle 4483" width="10.855" height="1.661" transform="translate(286.542 430.361)"/>
    <path id="Path_48980" data-name="Path 48980" d="M321.365,436.949c-.048-.079-5.253,2.164-5.8,5.55,0,0,5.06.062,6.517.262,1.43.2,3.506-1.512,2.352-2.685C323.659,439.287,322.563,438.932,321.365,436.949Z" transform="translate(-5.265 -11.152)" fill="#f7ddcb"/>
    <path id="Path_48981" data-name="Path 48981" d="M334.617,387.727c1.474.824,7.672,14.611,10.676,29.061.978,4.709-16.307,21.59-16.307,21.59s-6.286-6.534-7.144-7.25,10.727-11.069,10.434-13.245c-.481-3.588-3.138-7.608-3.578-10.785S329.754,385,334.617,387.727Z" transform="translate(-5.991 -5.384)"/>
    <rect id="Rectangle_4484" data-name="Rectangle 4484" width="10.855" height="1.661" transform="translate(308.602 430.361)"/>
    <path id="Path_48982" data-name="Path 48982" d="M279.412,451.408c.01,2.841.279,8.1,1.076,9.146a9.344,9.344,0,0,0,4.187,2.493,12.114,12.114,0,0,0,3.673-.932c.31-.234.232-1.276-1.926-.8-2.019.445-2.281-1.51-2.756-3.167s.063-3.037.943-2.371,1.35,3.922,1.893,3.962,1.393-.018.558-3.706-1.711-3.643-2.8-5.854Z" transform="translate(-1.051 -12.694)" fill="#f7ddcb"/>
    <path id="Path_48983" data-name="Path 48983" d="M277.285,387.423c-1.668.824-3.369,17.508-6.771,31.958-1.108,4.708,5.794,25.241,5.794,25.241s8.588-1.573,9.56-2.287-3.9-18.558-3.568-20.734c.545-3.589,1.065-6.336,1.564-9.512S282.793,384.7,277.285,387.423Z" transform="translate(0 -5.355)"/>
  </g>
</svg>
