<svg xmlns="http://www.w3.org/2000/svg" width="264.015" height="396.104" viewBox="0 0 264.015 396.104">
  <path id="Path_50562" data-name="Path 50562" d="M324.909,329.948V325.6c1.952-.387,3.74-.765,5.323-1.125a34.89,34.89,0,0,0,14.781-7.145c5.222-.891,15.04-4.5,16.083-19.029l1.522-1.522V232.346l1.047-6.663v-8.566l.058-.26a47.452,47.452,0,0,0,9.65-1.166,5.824,5.824,0,0,0,3.676-3.3,4.57,4.57,0,0,0,1.605-1.938c2.142-10.278-6-12.708-6-12.708-1.5,1.5-22.7,1.858-27.267.571s-5.711,4.854-5.711,4.854l.855,5.568s.013-.137.042-.348l-.042.348.567,2.569c2.373,4.949,4.763,2.571,4.763,2.571.088.086.189.167.286.25v3.176l3.808,15.039v46.922c-5.9-4.845-15.686-7.043-26.452-3.321a52.321,52.321,0,0,0,.708-13.789c-1.089-14.146-.373-18.911,3.072-35.6,1.479-7.172,4.708-13.135,6.8-18.9,2.751-7.571,5.4-14.722,6.092-23.493,1.131-14.311.565-26-.954-40.027-.076-.733-3.472-18.38-4.186-23.523-.771-5.547-6.418-20.577-23.081-23.462-14.357-2.486-37.569-3.913-63.691-3.913-26.976,0-51.525,1.5-64.065,3.924-16.656,3.213-22.263,18.017-23.017,23.45-.714,5.143-4.11,22.79-4.188,23.538-1.517,14.014-2.084,25.7-.952,40.012.7,8.771,3.343,15.922,6.092,23.493,2.095,5.765,5.324,11.727,6.8,18.9,3.444,16.692,4.16,21.457,3.072,35.6a52.264,52.264,0,0,0,.732,13.922l-.012,0c-10.51-3.749-20.116-1.858-26.143,2.654V232.346l3.807-15.039v-3.176c.1-.083.2-.164.286-.25,0,0,2.392,2.379,4.765-2.571l.565-2.569-.04-.348c.028.211.04.348.04.348l.857-5.568s-1.143-6.138-5.711-4.854-25.768.93-27.267-.571c0,0-8.138,2.429-6,12.708a4.555,4.555,0,0,0,1.605,1.938,5.816,5.816,0,0,0,3.676,3.3,47.452,47.452,0,0,0,9.65,1.166l.057.26v8.566l1.049,6.663v64.434l1.522,1.522c.985,13.73,9.813,17.709,15.189,18.859a34.837,34.837,0,0,0,14.982,7.315c1.712.39,3.661.8,5.8,1.218v4.255h16.418v-1.556c6.879.946,14.628,1.807,22.984,2.435v6.4H180.718v-1.142h-27.7v10.278c-2.47,1.061-4,2.523-4,4.14,0,3.233,6.1,5.852,13.634,5.852s13.633-2.62,13.633-5.852a3.014,3.014,0,0,0-.711-1.855h5.137v-.571h39.4l12.211,18.416h2.575v19.987h1.855v12.565h-3.71v24.976c-1.159.174-2.336.326-3.509.434-7.709.714-33.693,4-40.973,5.424s-35.976,8.853-46.968,12.136-17.273,5.71-20.272,7.281-4.284,2.142-4.284,6.281v6.068s.314.132.875.311v2.813a2.989,2.989,0,0,0-2.112,1.276c-.9,1.858-1.236,19.607,0,21.7s5.665,1.523,5.665,1.523v-9.606h.552v.943h5.97v-.943h.711v9.606s4.427.571,5.664-1.523.9-19.842,0-21.7a3.119,3.119,0,0,0-2.269-1.311v-2.822c.335-.086.663-.165,1.006-.268V459.29s28.338-7.495,38.047-8.709,41.544-5.852,49.254-5.852c0,0,11.494-1.428,15.133,5.424a8.524,8.524,0,0,0,2.661,1.561l.516,7.95a2.674,2.674,0,0,0,.945,1.769h-.289v3.338a2.989,2.989,0,0,0-2.111,1.276c-.9,1.858-1.236,19.607,0,21.7s5.664,1.523,5.664,1.523v-9.606h.555v.943h5.967v-.943h.711v9.606s4.427.571,5.665-1.523.9-19.842,0-21.7a3.122,3.122,0,0,0-2.269-1.311v-3.3h-.131a2.667,2.667,0,0,0,.945-1.769l.527-8.1a7.965,7.965,0,0,0,2.3-1.413c3.64-6.852,15.131-5.424,15.131-5.424,7.711,0,39.547,4.64,49.254,5.852s38.047,8.709,38.047,8.709v2.357c.342.1.672.181,1.007.268v2.822a3.119,3.119,0,0,0-2.269,1.311c-.9,1.858-1.238,19.607,0,21.7s5.664,1.523,5.664,1.523v-9.606h.711v.943h5.968v-.943h.555v9.606s4.424.571,5.662-1.523.9-19.842,0-21.7a2.983,2.983,0,0,0-2.111-1.276v-2.813c.561-.178.873-.311.873-.311v-6.068c0-4.139-1.284-4.711-4.281-6.281s-9.28-4-20.272-7.281-39.689-10.708-46.97-12.136-33.264-4.71-40.973-5.424c-1.056-.1-2.115-.229-3.163-.381l.007-.006V399.046h-3.712V386.481h1.857V366.494h2.2l12.211-18.416h42.183v.571h5.137a3.014,3.014,0,0,0-.711,1.855c0,3.233,6.1,5.852,13.633,5.852s13.634-2.62,13.634-5.852c0-1.617-1.529-3.079-4-4.14V336.086h-27.7v1.142H282.08v-6.192c9.68-.652,18.618-1.628,26.412-2.712v1.623ZM248.594,96.667h0Zm-1.11,332.6h-.47c.158-.01.314-.021.47-.034Z" transform="translate(-115 -93.239)" fill="#3a325e"/>
</svg>
