<svg xmlns="http://www.w3.org/2000/svg" width="90.029" height="212.706" viewBox="0 0 90.029 212.706">
  <g id="Group_23365" data-name="Group 23365" transform="translate(-1411.04 -137.516)">
    <path id="Path_50482" data-name="Path 50482" d="M1506.159,1115.756a85.724,85.724,0,0,0-11.4.306.563.563,0,0,0-.391.2.543.543,0,0,0-.262.441c-.115,1.695-.342,5.048-.469,6.742-.125,1.656-6.323,8.941-6.323,10.961,0,1.536,18.024.653,18.5.345.842-.548.513-2.928.554-3.8q.111-2.384.177-4.77.13-4.772.076-9.546A.578.578,0,0,0,1506.159,1115.756Z" transform="translate(-61.217 -785.063)" fill="#5b7bd6"/>
    <path id="Path_50483" data-name="Path 50483" d="M1650.886,1116.634q-.054,4.773.076,9.546.065,2.386.177,4.77c.041.873-.287,3.253.555,3.8.473.307,18.5,1.191,18.5-.345,0-2.02-6.2-9.3-6.322-10.961-.127-1.694-.354-5.047-.469-6.742a.541.541,0,0,0-.262-.441.562.562,0,0,0-.391-.2,85.726,85.726,0,0,0-11.4-.306A.578.578,0,0,0,1650.886,1116.634Z" transform="translate(-192.433 -785.063)" fill="#5b7bd6"/>
    <path id="Path_50484" data-name="Path 50484" d="M1529.239,646.879l-.465-.016a1.466,1.466,0,0,0-.947-.033,142.338,142.338,0,0,0-22.876,1.162c-.7-.533-.991,1.151-2.169.984-1.959-.279-2.679,44.591-.847,76.737.352,6.18.843,12.352,1.424,18.515a1.838,1.838,0,0,0,1.831,1.664h14.728a1.26,1.26,0,0,0,1.255-1.13c1.041-10.055,7.508-83.89,8.309-95.329A1.3,1.3,0,0,0,1529.239,646.879Z" transform="translate(-72.101 -408.716)" fill="#ebf9ff"/>
    <path id="Path_50485" data-name="Path 50485" d="M1598.594,646.879l.465-.016a1.466,1.466,0,0,1,.947-.033,142.336,142.336,0,0,1,22.876,1.162c.7-.533.991,1.151,2.169.984,1.959-.279,2.679,44.591.848,76.737-.363,6.37-.873,12.731-1.478,19.082a1.213,1.213,0,0,1-1.208,1.1h-15.029a1.559,1.559,0,0,1-1.551-1.4c-1.123-11.039-7.487-83.716-8.281-95.057A1.3,1.3,0,0,1,1598.594,646.879Z" transform="translate(-149.534 -408.716)" fill="#ebf9ff"/>
    <path id="Path_50486" data-name="Path 50486" d="M1589.409,171.739c-.065-6.279.63-12.723-.93-18.813-1.229-4.795-1.434-11.293-6.183-14.2a10.111,10.111,0,0,0-6.974-.994c-5.978,1.183-8.238,7.465-9.311,12.727a112,112,0,0,0-2.089,20.727c0,.361.075.537.345.605.124,1.518,2.425.927,3.608,1.019,2.315.179,4.636.261,6.958.277,4.434.032,8.864-.175,13.292-.392a.7.7,0,0,0,1.292-.337c0-.079,0-.158,0-.237A.792.792,0,0,0,1589.409,171.739Z" transform="translate(-122.699 0)" fill="#ebf9ff"/>
    <path id="Path_50487" data-name="Path 50487" d="M1538.1,316.075c-.252-2.006-2.019-4.126-3.032-5.571a32.925,32.925,0,0,0-3.937-4.636c-1.923-1.878-5.81-2.6-8.382-2.947a87.338,87.338,0,0,0-12.053-.416,102.51,102.51,0,0,0-13.268.783c-3.921.537-8.173,1.487-11.415,3.889a12.139,12.139,0,0,0-3.736,4.842,60.32,60.32,0,0,0-2.667,6.9.383.383,0,0,0,.488.471,1.04,1.04,0,0,0,.482.932c1.6,1.12,3.236,2.21,4.811,3.371a10.714,10.714,0,0,1,2.681,2.652c-2.962,16.214-6.588,42.035-4.391,55.832,2.185-.086,41.58,1.359,48.323,0,.246-6.265-.375-37.02-1.86-55.605l4.687-5.188c.832-.921,1.67-1.836,2.5-2.763A3.084,3.084,0,0,0,1538.1,316.075Z" transform="translate(-55.015 -132.401)" fill="#ebf9ff"/>
    <path id="Path_50488" data-name="Path 50488" d="M1720.479,338.92a62.332,62.332,0,0,0-10.033-15.624c-3.6-4.228-8.956-10.25-14.371-12.134a.963.963,0,0,0-.788.113c-4.08-.248-4.975,5.5-5.351,8.584-.282,2.316-.54,4.635-.81,6.953-.178,1.533-.4,3.079-.444,4.625a51.309,51.309,0,0,0,3.483,6.733,74.917,74.917,0,0,0,12.122,16.244,47.169,47.169,0,0,0,13.742,9.147c.289.054.58.1.873.137a5.406,5.406,0,0,0,2.955-.221.9.9,0,0,0,.9-.7C1724.933,354.834,1723.694,346.406,1720.479,338.92Z" transform="translate(-222.83 -139.332)" fill="#ebf9ff"/>
    <path id="Path_50490" data-name="Path 50490" d="M1698.184,643.671c-2.138-1.359-4.414-.728-6.43-2.261-.066-.05-.9-.829-.512-1.34-1.248-.948-5.708-5.48-7.112-5.587-1.339-.1-2.66.78-3.758,1.442a25.017,25.017,0,0,0-3.592,2.661.776.776,0,0,0,.067,1.241.9.9,0,0,0,1.185,1.252l.07-.034c.353.677,1.754.324,2.35.3.327-.008.715.639,1.171.664.819.044,1.475-.344,2.284-.006a6.154,6.154,0,0,1,1.982,1.647,29.067,29.067,0,0,0,3.733,3.827,3.378,3.378,0,0,0,3.832.489,22.255,22.255,0,0,0,4.64-2.586.887.887,0,0,0,.345-.482A.864.864,0,0,0,1698.184,643.671Z" transform="translate(-213.053 -398.85)" fill="#5b7bd6"/>
    <path id="Path_50491" data-name="Path 50491" d="M1772.053,473.515c-.981-3.518-3.462-3.985-7.282-4.421a.834.834,0,0,0-.931,1.022,1.035,1.035,0,0,0-.209.19,59.55,59.55,0,0,0-13.822,34.761c-.055.959,1.1,1.916,1.635,2.612a31.207,31.207,0,0,0,2.87,3.384,8.91,8.91,0,0,0,3.03,2.257c1.528.531,3.271-1,4.414-1.88a20.3,20.3,0,0,0,4.276-4.731,39.43,39.43,0,0,0,4.773-9.6,40.37,40.37,0,0,0,2.045-10.37C1773.077,483.264,1772.992,476.884,1772.053,473.515Z" transform="translate(-271.887 -266.113)" fill="#ebf9ff"/>
    <path id="Path_50492" data-name="Path 50492" d="M1459.059,726.679a25.978,25.978,0,0,0-.783-6.425,5,5,0,0,0-3.3-3.759,5.966,5.966,0,0,0-4.96,1.12c-.529-.144-1.148.12-1.075.808.187,1.748.421,3.491.714,5.224a30.231,30.231,0,0,0,1.046,4.86c.961,2.768,3.338,4.206,5.9,5.312a.911.911,0,0,0,1.305-.531A16.368,16.368,0,0,0,1459.059,726.679Z" transform="translate(-30.414 -464.542)" fill="#5b7bd6"/>
    <path id="Path_50494" data-name="Path 50494" d="M1757.929,655.929a14,14,0,0,0-2.883-2.637,30.573,30.573,0,0,1-3.077-3.026.833.833,0,0,0-.9-.278.813.813,0,0,0-1.156-.14c-.89.631-2.091,1.657-1.615,2.872a11.047,11.047,0,0,0,2.433,3.081,15.856,15.856,0,0,0,2.962,2.533,1.524,1.524,0,0,0,1.78-.05,1.07,1.07,0,0,0,1.277-.958C1757.522,657.572,1758.5,656.774,1757.929,655.929Z" transform="translate(-270.589 -411.045)" fill="#ebf9ff"/>
    <path id="Path_50495" data-name="Path 50495" d="M1484.278,728.365c-.127-1.07-.086-2.177-.292-3.234a19.236,19.236,0,0,0-2.215-5.484.8.8,0,0,0-.391-.356.764.764,0,0,0-1.163-.248c-.9.716-1.9,1.759-1.784,3.009a2.168,2.168,0,0,0,.77,1.382,4.93,4.93,0,0,1,1.148,1.781c.516,1.346.7,2.787,1.139,4.154a6.874,6.874,0,0,0,.943,1.941c.323.445.948,1.319,1.59,1.134.452-.131.923-.533.8-1.04A26.994,26.994,0,0,1,1484.278,728.365Z" transform="translate(-54.081 -466.581)" fill="#5b7bd6"/>
    <path id="Path_50496" data-name="Path 50496" d="M1438.715,322.688a3.952,3.952,0,0,0-5.035-1.656c-.29-.519-2.723.868-3.262,1.417-3.8,3.873-4.86,6.892-7.143,11.783a134.819,134.819,0,0,0-6.282,16.186,124.32,124.32,0,0,0-5.934,34.408c-.143,5.676.409,12.277,5.727,15.6a.949.949,0,0,0,.487.154c2.018.042,4,.8,6.093.752a26.218,26.218,0,0,0,3.366-.342c.736-.111,2.073.054,2.639-.44a3.172,3.172,0,0,0,.77-1.3,49.115,49.115,0,0,0,3.591-13.756c.547-5.907.619-11.856.807-17.782.191-6.055.486-12.1,1.251-18.116.78-6.125,1.932-12.194,2.958-18.28C1439.2,328.648,1440.247,325.2,1438.715,322.688Z" transform="translate(0 -146.992)" fill="#ebf9ff"/>
    <path id="Path_50497" data-name="Path 50497" d="M1454.385,708.466a.967.967,0,0,0-1.447-.749.932.932,0,0,0-.431-.06q-3.751.321-7.476.879c-.867.132-1.892.143-2.336,1.059s-.018,2.262.159,3.22c.286,1.539,2.425.958,3.448.86l5.73-.554c.875-.085,1.892-.1,2.337-1.039C1454.849,711.07,1454.5,709.53,1454.385,708.466Z" transform="translate(-25.248 -457.536)" fill="#ebf9ff"/>
    <path id="Path_50498" data-name="Path 50498" d="M1601.736,186.107a24.5,24.5,0,0,1-6.01.207,23.956,23.956,0,0,1-6.586-.532,2,2,0,0,1-.86-.488,8.323,8.323,0,0,0-1.74,2.772,9.008,9.008,0,0,0,.007,4.652,28.27,28.27,0,0,0,1.506,5.269.932.932,0,0,0,.995.591,15.812,15.812,0,0,0,5.8,2.863c1.653.363,4.076.617,5.152-.994a.94.94,0,0,0,.124-.265,47.909,47.909,0,0,0,1.99-6.625c.449-2.03,1.057-4.3.212-6.3A8.418,8.418,0,0,0,1601.736,186.107Z" transform="translate(-140.604 -38.346)" fill="#ffb08f"/>
    <path id="Path_50499" data-name="Path 50499" d="M1553.3,324.585c-7.089-1.912-14.565-2.238-21.885-2.262q.094-11.768.174-23.536.049-7.353.089-14.707,5.731.032,11.45.528c.633.055.629-.932,0-.987q-5.712-.5-11.444-.528.012-2.178.026-4.355a.494.494,0,0,0-.987,0q-.012,2.176-.026,4.352-6.324.009-12.633.583c-.627.057-.633,1.045,0,.987q6.3-.575,12.627-.583-.111,19.123-.265,38.245-5.944,0-11.87.432c-3.67.268-7.53.43-11.009,1.73-.009.343-.047.684-.058,1.026a.474.474,0,0,0,.207-.033c3.552-1.356,7.493-1.5,11.249-1.763q5.727-.4,11.473-.4-.106,13.1-.229,26.192-.1,10.024-.2,20.049a.494.494,0,0,0,.987,0q.248-23.119.432-46.238c7.236.023,14.622.336,21.63,2.226A.494.494,0,0,0,1553.3,324.585Z" transform="translate(-77.407 -112.96)" fill="#5b7bd6"/>
    <path id="Path_50500" data-name="Path 50500" d="M1624.062,218.258a14.083,14.083,0,0,1-.255-4.157c.005-.127-.192-.127-.2,0a14.272,14.272,0,0,0,.263,4.209A.1.1,0,0,0,1624.062,218.258Z" transform="translate(-170.574 -61.389)" fill="#db7d61"/>
    <path id="Path_50501" data-name="Path 50501" d="M1604.247,230.292a.879.879,0,0,0-.382-.567,12.674,12.674,0,0,0-14.24-.038.879.879,0,0,0-.376.523.815.815,0,0,0-.067.654c1.075,3.756,3.185,8.935,7.812,9.205,2.049.12,3.6-1.8,4.7-3.289a14.9,14.9,0,0,0,2.614-5.92A.891.891,0,0,0,1604.247,230.292Z" transform="translate(-142.942 -72.233)" fill="#ebf9ff"/>
    <path id="Path_50502" data-name="Path 50502" d="M1646.437,213l-.007-.008a.4.4,0,0,0-.693.162,3.2,3.2,0,0,0,.028,1.765c.083.275.38.241.555.1a1.5,1.5,0,0,0,.313-1.261A1.559,1.559,0,0,0,1646.437,213Z" transform="translate(-188.275 -60.464)" fill="#1c1718"/>
    <path id="Path_50503" data-name="Path 50503" d="M1605.891,212.993l-.007-.008a.4.4,0,0,0-.687.188,3.205,3.205,0,0,0,.1,1.763c.094.271.389.227.558.075a1.5,1.5,0,0,0,.265-1.272A1.554,1.554,0,0,0,1605.891,212.993Z" transform="translate(-155.763 -60.467)" fill="#1c1718"/>
    <path id="Path_50504" data-name="Path 50504" d="M1643.653,202.552a3.081,3.081,0,0,0-1.868-.35,1.765,1.765,0,0,0-1.337.588c-.176.267-.212.621.141.754a2.437,2.437,0,0,0,1.084-.068c.632-.064,1.247.051,1.876.028S1644.052,202.824,1643.653,202.552Z" transform="translate(-184.014 -51.901)" fill="#944f32"/>
    <path id="Path_50505" data-name="Path 50505" d="M1596.259,202.754c.629.023,1.244-.092,1.876-.028a2.437,2.437,0,0,0,1.084.068c.353-.132.317-.487.141-.754a1.765,1.765,0,0,0-1.337-.589,3.081,3.081,0,0,0-1.868.35C1595.756,202.074,1595.624,202.731,1596.259,202.754Z" transform="translate(-148.3 -51.299)" fill="#944f32"/>
    <path id="Path_50506" data-name="Path 50506" d="M1585.709,202.616c1.082-1.486-.538-7.694-.994-11.3-.229-1.81-1.057-8.423-2.053-9.654a1.368,1.368,0,0,0-.209-.21,1.1,1.1,0,0,0-.921-.387,144.964,144.964,0,0,1-17.609-.579,1.311,1.311,0,0,0-.351.013,1.188,1.188,0,0,0-1.3.875q-1.785,5.852-3.049,11.847a39.2,39.2,0,0,0-1.015,5.806c-.1,1.822.489,3.056,2.284,3.553a20.075,20.075,0,0,0,5.342.38q3.076.007,6.15.1C1576.084,203.186,1585.39,203.055,1585.709,202.616Z" transform="translate(-118.108 -34.483)" fill="#fff" opacity="0.51"/>
    <path id="Path_50507" data-name="Path 50507" d="M1738.563,413.6c-.005-.127-.2-.127-.2,0q.362,8.338.427,16.685a.1.1,0,0,0,.2,0Q1738.925,421.937,1738.563,413.6Z" transform="translate(-262.705 -221.501)" fill="#69a1c9"/>
    <path id="Path_50508" data-name="Path 50508" d="M1750.456,411.07l-2.095,11.051c-.024.124.167.177.19.052l2.095-11.051C1750.67,411,1750.48,410.945,1750.456,411.07Z" transform="translate(-270.726 -219.492)" fill="#69a1c9"/>
    <path id="Path_50509" data-name="Path 50509" d="M1792.222,500.807c-4.064.206-6.808,3.539-8.681,6.809a.1.1,0,0,0,.171.1c1.836-3.2,4.521-6.508,8.511-6.711C1792.348,501,1792.349,500.8,1792.222,500.807Z" transform="translate(-298.951 -291.571)" fill="#69a1c9"/>
    <path id="Path_50510" data-name="Path 50510" d="M1795.555,527.294a13,13,0,0,0-6.583,2c-.107.068-.008.238.1.171a12.788,12.788,0,0,1,6.484-1.974A.1.1,0,0,0,1795.555,527.294Z" transform="translate(-303.283 -312.828)" fill="#69a1c9"/>
    <path id="Path_50511" data-name="Path 50511" d="M1761.628,665.594a20.557,20.557,0,0,1-5.5-4.992c-.076-.1-.248,0-.171.1a20.823,20.823,0,0,0,5.57,5.063C1761.637,665.832,1761.736,665.661,1761.628,665.594Z" transform="translate(-276.809 -419.786)" fill="#69a1c9"/>
    <path id="Path_50512" data-name="Path 50512" d="M1788.249,665.224a12.9,12.9,0,0,1-6.619,2.636c-.125.012-.126.21,0,.2a13.076,13.076,0,0,0,6.719-2.663C1788.448,665.317,1788.349,665.146,1788.249,665.224Z" transform="translate(-297.353 -423.512)" fill="#69a1c9"/>
    <path id="Path_50513" data-name="Path 50513" d="M1773.9,641.078a8.115,8.115,0,0,0-1.2,5.5c.017.125.208.072.19-.052a7.9,7.9,0,0,1,1.179-5.349C1774.144,641.071,1773.973,640.972,1773.9,641.078Z" transform="translate(-290.203 -404.113)" fill="#69a1c9"/>
    <path id="Path_50514" data-name="Path 50514" d="M1502.2,399.495q-2.1,12.124-3.351,24.376-1.252,12.325-1.623,24.719-.209,6.993-.137,13.991a.1.1,0,0,0,.2,0q-.125-12.34.621-24.668.745-12.269,2.357-24.465.921-6.971,2.126-13.9C1502.409,399.423,1502.219,399.37,1502.2,399.495Z" transform="translate(-69.045 -210.202)" fill="#69a1c9"/>
    <path id="Path_50515" data-name="Path 50515" d="M1438.347,682.462c-4.315-1.5-6.024-6.126-7.263-10.109-.038-.121-.228-.069-.19.052,1.261,4.058,3.012,8.719,7.4,10.247C1438.414,682.694,1438.466,682.5,1438.347,682.462Z" transform="translate(-15.93 -429.195)" fill="#69a1c9"/>
    <path id="Path_50516" data-name="Path 50516" d="M1473.765,691.232c-.008-.126-.2-.127-.2,0q.192,3.165.6,6.31c.016.124.214.126.2,0Q1473.958,694.4,1473.765,691.232Z" transform="translate(-50.184 -444.326)" fill="#69a1c9"/>
    <path id="Path_50517" data-name="Path 50517" d="M1454.131,720.926a50.049,50.049,0,0,1-9.19.688.1.1,0,0,0,0,.2,50.342,50.342,0,0,0,9.243-.7C1454.309,721.1,1454.256,720.905,1454.131,720.926Z" transform="translate(-27.132 -468.233)" fill="#69a1c9"/>
    <path id="Path_50518" data-name="Path 50518" d="M1501.266,393.959c-.013-.125-.21-.127-.2,0a156.061,156.061,0,0,1,.789,16.977.1.1,0,0,0,.2,0A156.092,156.092,0,0,0,1501.266,393.959Z" transform="translate(-72.255 -205.741)" fill="#69a1c9"/>
    <path id="Path_50519" data-name="Path 50519" d="M1656.783,684.382a23.579,23.579,0,0,0-15.318,8.951c-.077.1.094.2.17.1a23.392,23.392,0,0,1,15.2-8.861C1656.961,684.555,1656.907,684.365,1656.783,684.382Z" transform="translate(-184.919 -438.904)" fill="#69a1c9"/>
    <path id="Path_50520" data-name="Path 50520" d="M1669.2,713.869c-3.571.246-7.233.527-10.494,2.138-.114.056-.014.227.1.171,3.227-1.595,6.859-1.868,10.394-2.111C1669.323,714.057,1669.324,713.86,1669.2,713.869Z" transform="translate(-198.73 -462.569)" fill="#69a1c9"/>
    <path id="Path_50521" data-name="Path 50521" d="M1571.417,680.122a82.7,82.7,0,0,1-9.257-11.379c-.071-.1-.242-.006-.17.1a82.975,82.975,0,0,0,9.288,11.418C1571.367,680.353,1571.506,680.213,1571.417,680.122Z" transform="translate(-121.136 -426.318)" fill="#69a1c9"/>
    <path id="Path_50522" data-name="Path 50522" d="M1559.43,717.52a58.011,58.011,0,0,0-8.412-2.293c-.124-.024-.177.166-.053.191a57.977,57.977,0,0,1,8.413,2.293C1559.5,717.753,1559.549,717.563,1559.43,717.52Z" transform="translate(-112.244 -463.659)" fill="#69a1c9"/>
    <path id="Path_50523" data-name="Path 50523" d="M1622.808,750.277q-.106,12.362-.213,24.725-.03,3.5-.06,6.994a.1.1,0,0,0,.2,0q.106-12.363.212-24.725.03-3.5.06-6.994A.1.1,0,0,0,1622.808,750.277Z" transform="translate(-169.742 -491.714)" fill="#69a1c9"/>
    <path id="Path_50524" data-name="Path 50524" d="M1605.638,244.052c-1.149,2.56-2.378,5.276-4.634,7.06a4.394,4.394,0,0,1-2.278,1.06,3.689,3.689,0,0,1-2.358-.7,11.056,11.056,0,0,1-3.03-3.713,18.185,18.185,0,0,1-1.927-5c-.028-.124-.218-.071-.19.052a18.388,18.388,0,0,0,1.78,4.748,12.21,12.21,0,0,0,3.046,3.924,3.7,3.7,0,0,0,3.985.5,9.287,9.287,0,0,0,3.256-3.063,28.671,28.671,0,0,0,2.52-4.767C1605.86,244.037,1605.69,243.936,1605.638,244.052Z" transform="translate(-144.607 -84.405)" fill="#5b7bd6"/>
    <path id="Path_50525" data-name="Path 50525" d="M1628.137,234.363a.1.1,0,0,0-.2,0q.018,4.2.036,8.391a.1.1,0,0,0,.2,0Q1628.155,238.558,1628.137,234.363Z" transform="translate(-174.08 -77.651)" fill="#5b7bd6"/>
    <path id="Path_50526" data-name="Path 50526" d="M1642.8,245.553c-1.385-.875-2.817.847-2.968,2.11a2.233,2.233,0,0,0,.655,1.971,1.433,1.433,0,0,0,1.889-.346c.093-.087-.047-.227-.14-.14-.608.57-1.465.779-1.95-.066a2.359,2.359,0,0,1-.216-1.652c.224-1.052,1.471-2.44,2.63-1.707C1642.807,245.792,1642.906,245.621,1642.8,245.553Z" transform="translate(-183.608 -86.517)" fill="#5b7bd6"/>
    <path id="Path_50527" data-name="Path 50527" d="M1605.09,245.844a1.811,1.811,0,0,0-1.357-.991.987.987,0,0,0-1.012.725.1.1,0,0,0,.19.053c.188-.737,1.063-.666,1.536-.262a2.754,2.754,0,0,1,.744,1.135c.272.731.469,2.271-.427,2.655-.116.05-.016.22.1.17a1.529,1.529,0,0,0,.727-1.417A3.537,3.537,0,0,0,1605.09,245.844Z" transform="translate(-153.837 -86.147)" fill="#5b7bd6"/>
    <path id="Path_50528" data-name="Path 50528" d="M1618.013,741.4q-3.7-.875-7.432-1.647c-.124-.026-.177.165-.052.19q3.728.771,7.432,1.647C1618.084,741.619,1618.136,741.428,1618.013,741.4Z" transform="translate(-160.048 -483.342)" fill="#69a1c9"/>
    <g id="Group_23345" data-name="Group 23345" transform="translate(1455.935 170.743)">
      <path id="Path_50529" data-name="Path 50529" d="M1638.546,392.788h-.013a.1.1,0,0,1-.085-.111c.775-5.785,1.513-55.219,1.829-76.328.117-7.829.156-10.367.175-10.449a.1.1,0,0,1,.194.039c-.018.175-.079,4.251-.171,10.413-.315,21.112-1.053,70.554-1.831,76.351A.1.1,0,0,1,1638.546,392.788Z" transform="translate(-1638.447 -305.823)" fill="#69a1c9"/>
    </g>
    <g id="Group_23346" data-name="Group 23346" transform="translate(1449.314 170.743)">
      <path id="Path_50530" data-name="Path 50530" d="M1606.13,391.686a.1.1,0,0,1-.1-.083c-2.662-16.5.249-85,.278-85.686a.1.1,0,0,1,.2.008c-.03.69-2.939,69.165-.281,85.646a.1.1,0,0,1-.082.113Z" transform="translate(-1604.912 -305.823)" fill="#69a1c9"/>
    </g>
    <path id="Path_50531" data-name="Path 50531" d="M1690.161,642.571l-4.515,2.61a.1.1,0,0,0,.1.171l4.516-2.61A.1.1,0,0,0,1690.161,642.571Z" transform="translate(-220.355 -405.336)" fill="#465791"/>
    <path id="Path_50532" data-name="Path 50532" d="M1701.92,648.462l-4.625,2.495c-.112.06-.012.231.1.17l4.625-2.495C1702.131,648.572,1702.032,648.4,1701.92,648.462Z" transform="translate(-229.703 -410.065)" fill="#465791"/>
    <path id="Path_50533" data-name="Path 50533" d="M1715.735,657.143,1713.4,658.3c-.114.057-.014.227.1.171l2.332-1.161C1715.948,657.256,1715.849,657.086,1715.735,657.143Z" transform="translate(-242.631 -417.033)" fill="#465791"/>
    <path id="Path_50534" data-name="Path 50534" d="M1477.393,776.21a11.394,11.394,0,0,1-3.6-4.217c-.056-.114-.227-.014-.171.1a11.593,11.593,0,0,0,3.669,4.288C1477.4,776.454,1477.5,776.283,1477.393,776.21Z" transform="translate(-50.22 -509.179)" fill="#465791"/>
    <path id="Path_50535" data-name="Path 50535" d="M1507.047,1206.126a63.188,63.188,0,0,1-10.8.087c-.127-.01-.126.188,0,.2a63.176,63.176,0,0,0,10.8-.088C1507.173,1206.312,1507.174,1206.114,1507.047,1206.126Z" transform="translate(-68.311 -857.646)" fill="#465791"/>
    <path id="Path_50536" data-name="Path 50536" d="M1688.838,1205.208q-3.135.121-6.271.242a29.736,29.736,0,0,1-6.35-.24c-.124-.022-.178.168-.053.191a29.2,29.2,0,0,0,6.212.254q3.231-.12,6.462-.25C1688.965,1205.4,1688.965,1205.2,1688.838,1205.208Z" transform="translate(-212.726 -856.909)" fill="#465791"/>
    <path id="Path_50539" data-name="Path 50539" d="M1573.257,203.539a24.8,24.8,0,0,0,4.663.221c.488,0,.976.009,1.464.014q2.247-11.008,4.78-21.957-2.974-.111-5.943-.341Q1575.6,192.477,1573.257,203.539Z" transform="translate(-130.192 -35.283)" fill="#fff" opacity="0.51"/>
    <path id="Path_50540" data-name="Path 50540" d="M1597.574,177.593a.335.335,0,0,0-.353-.24l-.043,0a67.789,67.789,0,0,1-10.177.6,46.962,46.962,0,0,1-9.336-.673.657.657,0,0,0-.757.436c-.351,1.067-.551,1.805-.552,1.861-.007.276,6.882.9,10.309.938a68.943,68.943,0,0,0,10.563-.6,1.756,1.756,0,0,0,.7-.252.331.331,0,0,0,.136-.361C1597.95,178.87,1597.705,178.041,1597.574,177.593Z" transform="translate(-132.68 -31.907)" fill="#5b7bd6"/>
    <g id="Group_23347" data-name="Group 23347" transform="translate(1459.964 188.42)">
      <path id="Path_50541" data-name="Path 50541" d="M1669.9,401.148a3.406,3.406,0,0,1-.6-.055,36.454,36.454,0,0,0-7.856-.513,2.4,2.4,0,0,1-1.754-.7,2.655,2.655,0,0,1-.83-1.893,2.629,2.629,0,0,1,2.577-2.594,42.78,42.78,0,0,1,9.218.694,2.193,2.193,0,0,1,1.45,1.035,2.8,2.8,0,0,1,.362,2.157A2.55,2.55,0,0,1,1669.9,401.148Zm-6.91-.8a35.638,35.638,0,0,1,6.341.546,2.452,2.452,0,0,0,2.94-1.671,2.6,2.6,0,0,0-.338-2,2,2,0,0,0-1.318-.946,42.625,42.625,0,0,0-9.176-.691,2.39,2.39,0,0,0-1.617,4.147,2.2,2.2,0,0,0,1.61.646Q1662.222,400.352,1663,400.352Z" transform="translate(-1658.86 -395.365)" fill="#5b7bd6"/>
    </g>
  </g>
</svg>
