<svg xmlns="http://www.w3.org/2000/svg" width="75.345" height="219.171" viewBox="0 0 75.345 219.171">
  <g id="Group_23335" data-name="Group 23335" transform="translate(-876.337 -49.559)">
    <path id="Path_49798" data-name="Path 49798" d="M951.244,171.777c.141-2.134,3.09-9.736,4.576-14.518A34.4,34.4,0,0,0,946.743,155l-.281,1.814a102.011,102.011,0,0,1-.72,14.023c-1.069,2.24-2,2.365-2.743,6.318-.77,4.088.166,4.117.762,4.052s.984-3.665,1.924-4.432,1.588.73,1.131,2.57-.668,4-2.905,3.591c-2.392-.438-2.436.711-2.086.956a13.334,13.334,0,0,0,4.076.878,10.271,10.271,0,0,0,4.5-2.906c.835-1.177.922-6.969.82-10.095Z" transform="translate(-8.925 -14.406)" fill="#7a5f56"/>
    <path id="Path_49799" data-name="Path 49799" d="M944.51,160.092c.034-2.655,2.1-11.859,2.572-20.453,0,0-3.867-9.086-4.526-11.631-.2-.433-3.172-8.055-2.126-10.444,1.362-3.112,4.429-14.659,6.975-14.294,1.863.267,3.626,3.467,5.782,8.087,1.768,3.79,4.608,14.956,4.608,14.956,1.184,3.529,2.107,11.057,2.53,12.9.266,1.165-.148,3.138-.681,6.225-.639,3.7-3.993,16.127-6.088,17.8l-4.174-1.106C948.834,162.013,944.5,160.654,944.51,160.092Z" transform="translate(-8.726 -7.337)" fill="#e28f25"/>
    <path id="Path_49800" data-name="Path 49800" d="M953.328,174.88a9.23,9.23,0,0,0,.767-2.642c.027-.471-8.018-2.188-9.046-3.153,0,0-1.218,3.045-.812,3.2S953.03,175.4,953.328,174.88Z" transform="translate(-9.265 -16.329)" fill="#dd5126"/>
    <path id="Path_49801" data-name="Path 49801" d="M918,124.269c1.89-6.329,14.489-26.876,14.1-27.715-.4-.87,1.227-.066-3.643-2.721s-4.223-7.4-4.266-8.751H911.637c-.043,1.349.586,5.59-3.744,9.04s-2.9,4.128-3.3,5c-.388.839,11.346,18.819,13.236,25.149v.667c.021-.106.055-.231.086-.351.031.12.066.245.086.351Z" transform="translate(-3.859 -4.853)" fill="#7a5f56"/>
    <g id="Group_23283" data-name="Group 23283" transform="translate(898.723 87.256)">
      <path id="Path_49802" data-name="Path 49802" d="M926.273,93.221c-2.639,5.481-8.68,4.973-8.68,4.973s-6.04.508-8.68-4.973a35.433,35.433,0,0,1-6.648,5.024s1.068,11.521,15.328,11.521,15.328-11.521,15.328-11.521A35.433,35.433,0,0,1,926.273,93.221Z" transform="translate(-902.265 -93.221)" fill="#fff"/>
      <path id="Path_49803" data-name="Path 49803" d="M926.108,93.221a9.1,9.1,0,0,1-15.127,0h-1.755a10.567,10.567,0,0,0,18.638,0Z" transform="translate(-903.216 -93.221)" fill="#eaeaea"/>
    </g>
    <path id="Path_49804" data-name="Path 49804" d="M896.77,289.882c-2.327,3.077-3.65,3.968-6.088,4.827-3.248,1.144-4.948,1.548-4.688,4.255.244,2.543,4.917,2.988,9.087,2.323,3.064-.489,5.761-1.945,6.493-1.722a2.214,2.214,0,0,0,2.1.675c1.426-.074,3-.3,3.227-.825s.526-5.254,0-6.83a16.306,16.306,0,0,1-.675-2.7Z" transform="translate(-1.316 -32.832)"/>
    <path id="Path_49805" data-name="Path 49805" d="M940.4,289.882c2.327,3.077,3.65,3.968,6.088,4.827,3.248,1.144,4.948,1.548,4.688,4.255-.244,2.543-4.917,2.988-9.087,2.323-3.063-.489-5.761-1.945-6.493-1.722a2.212,2.212,0,0,1-2.1.675c-1.426-.074-3-.3-3.227-.825s-.526-5.254,0-6.83a16.3,16.3,0,0,0,.675-2.7Z" transform="translate(-7.329 -32.832)"/>
    <path id="Path_49806" data-name="Path 49806" d="M893.342,182.94c-2.237.409-2.449-1.751-2.905-3.591s.19-3.337,1.131-2.57,1.329,4.366,1.924,4.432,1.532.036.761-4.052c-.745-3.953-1.673-4.078-2.742-6.317a101.98,101.98,0,0,1-.72-14.024L890.51,155a34.4,34.4,0,0,0-9.078,2.255c1.486,4.781,4.435,12.383,4.576,14.518l.021,0c-.1,3.125-.016,8.918.819,10.095a10.277,10.277,0,0,0,4.5,2.906,13.34,13.34,0,0,0,4.076-.878C895.778,183.651,895.734,182.5,893.342,182.94Z" transform="translate(-0.696 -14.406)" fill="#7a5f56"/>
    <path id="Path_49807" data-name="Path 49807" d="M892.234,160.092c-.034-2.655-2.1-11.859-2.572-20.453,0,0,3.867-9.086,4.526-11.631.2-.433,3.172-8.055,2.127-10.444-1.362-3.112-4.429-14.659-6.975-14.294-1.863.267-3.626,3.467-5.782,8.087-1.768,3.79-4.608,14.956-4.608,14.956-1.184,3.529-2.107,11.057-2.53,12.9-.267,1.165.152,3.138.681,6.225.624,3.638,3.993,16.127,6.088,17.8l4.174-1.106C887.911,162.013,892.241,160.654,892.234,160.092Z" transform="translate(0 -7.337)" fill="#e28f25"/>
    <path id="Path_49808" data-name="Path 49808" d="M941.9,102.847c.27-.307-2.817-1.975-6.742-3.734s-6.9-4.51-10.251-5.135c-2.1-.391-8.365,14.893-9.075,15.113-.055.016.039.085,0,0-.746-1.629-6.906-15.126-8.878-14.758-3.35.623-6.642,3.02-10.567,4.78s-7.012,3.427-6.742,3.734,4.712,10.133,5.66,14.568,1.646,7.167.7,9.324.669,14.791,1.9,20.6a15.786,15.786,0,0,1,.208,2.231,12.931,12.931,0,0,1-.171,1.794c-.332,1.789-5.34,24.775-5.476,45.971s2.3,66.733,2.3,66.733h13.263s3.88-56.808,7.746-79.921c3.866,23.113,7.747,79.921,7.747,79.921h13.262s2.437-45.536,2.3-66.733-5.142-44.182-5.475-45.971a12.911,12.911,0,0,1-.171-1.795,15.6,15.6,0,0,1,.209-2.23c1.227-5.811,2.948-18.445,2-20.6s-.352-4.888.595-9.324S941.63,103.154,941.9,102.847Z" transform="translate(-1.816 -6.067)" fill="#e28f25"/>
    <rect id="Rectangle_4539" data-name="Rectangle 4539" width="36.035" height="4.334" transform="translate(895.94 140.795)" fill="#dd5126"/>
    <g id="Group_23284" data-name="Group 23284" transform="translate(913.61 103.024)">
      <rect id="Rectangle_4540" data-name="Rectangle 4540" width="0.812" height="76.356" fill="#eaeaea"/>
    </g>
    <path id="Path_49809" data-name="Path 49809" d="M885.04,174.88a9.2,9.2,0,0,1-.767-2.642c-.027-.471,8.018-2.188,9.046-3.153,0,0,1.217,3.045.812,3.2S885.338,175.4,885.04,174.88Z" transform="translate(-1.084 -16.329)" fill="#dd5126"/>
    <path id="Path_49810" data-name="Path 49810" d="M911.374,89.042c-1.821.445-4.638,1.2-7.277,8.155,0,0,5.955,1.071,6.6,1.269s.087.8.914,1.675c3.908,4.156,5.475,7.828,6.2,8.277A34.638,34.638,0,0,0,912.92,97.96c-1.768-1.88-2.963-5.627-1.784-7.848Z" transform="translate(-3.792 -5.394)" fill="#dd5126"/>
    <path id="Path_49811" data-name="Path 49811" d="M926.513,89.042c1.822.445,4.578,1.2,7.218,8.155,0,0-5.955,1.071-6.6,1.269s-.087.8-.913,1.675c-3.908,4.156-5.475,7.828-6.2,8.277a34.637,34.637,0,0,1,4.889-10.458c1.768-1.88,3.054-5.495,1.874-7.716Z" transform="translate(-5.968 -5.394)" fill="#dd5126"/>
    <path id="Path_49812" data-name="Path 49812" d="M924.772,83.635q-.262.253-.534.493a11.836,11.836,0,0,1-1.818,1.33,8.794,8.794,0,0,1-1.751.789,8.318,8.318,0,0,1-1.71.355,8.508,8.508,0,0,1-2.177-.063,8.238,8.238,0,0,1-1.719-.468,9.368,9.368,0,0,1-1.767-.933,13.263,13.263,0,0,1-1.842-1.5c-2.43-2.345-2.408-8.27-2.994-7.852-1.34.9-2.2-1.78-2.367-3.372s.559-2.261,1.229-1.591.679-.076.865-.949c.06-.281.135-.56.216-.837q.186-.633.427-1.249a15.224,15.224,0,0,1,.68-1.5,13.381,13.381,0,0,1,.972-1.592,11.094,11.094,0,0,1,1.3-1.524,9.317,9.317,0,0,1,1.678-1.3,8.749,8.749,0,0,1,2.093-.908,9.492,9.492,0,0,1,2.628-.347,8.967,8.967,0,0,1,2.543.364,8.719,8.719,0,0,1,2.077.917,9.411,9.411,0,0,1,1.666,1.3,11.182,11.182,0,0,1,1.3,1.523,13.473,13.473,0,0,1,.964,1.589,15.4,15.4,0,0,1,.674,1.5c.158.408.3.823.423,1.242.08.272.153.547.212.824.187.873.2,1.619.865.949s1.4,0,1.229,1.591-1.026,4.271-2.367,3.372C927.18,75.364,927.2,81.29,924.772,83.635Z" transform="translate(-4.062 -1.511)" fill="#866a5e"/>
    <path id="Path_49813" data-name="Path 49813" d="M924.477,55.538a15.431,15.431,0,0,0-11.6-.837c-1.621.551-6.836,3.346-6.5,11.674a13.268,13.268,0,0,0,.524,3.359,2.532,2.532,0,0,1,1.12,2.181h1.029a11.556,11.556,0,0,1,.478-2.869c.358-.717,3.071-2.417,2.593-1.58s-.528,1.075.907.118,3.078-2.255,2.72-1.419,1.585-.5,2.488-1.242c1.506-1.233,2.123-1.281,1.611-.433-.56.926,2.267-1.305,3.821-1.545s.563,2.275,2,4.187,1.185,4.2,1.815,4.888h.818a4.5,4.5,0,0,1,.96-2.176c.849-.732,1.375-6.847.041-9.806A9.526,9.526,0,0,0,924.477,55.538Z" transform="translate(-4.103 -0.599)" fill="#534d46"/>
    <path id="Path_49814" data-name="Path 49814" d="M898.53,114.656c.012,1.4-.191,2.483.583,2.775a22.645,22.645,0,0,0,6.11,1.589c1.3,0,5.681-1.349,6.544-2.374.382-.452.324-2.644-.269-2.7C910.3,113.838,898.524,114.062,898.53,114.656Z" transform="translate(-3.03 -8.793)" fill="#ee602a"/>
    <path id="Path_49815" data-name="Path 49815" d="M938.476,114.656c-.012,1.4.192,2.483-.583,2.775a22.645,22.645,0,0,1-6.11,1.589c-1.3,0-5.681-1.349-6.544-2.374-.382-.452-.324-2.644.269-2.7C926.71,113.838,938.481,114.062,938.476,114.656Z" transform="translate(-6.648 -8.793)" fill="#ee602a"/>
    <g id="Group_23285" data-name="Group 23285" transform="translate(900.011 49.559)">
      <path id="Path_49816" data-name="Path 49816" d="M917.849,50.634c-11.982,0-13.459,10.078-13.459,14.964a18.7,18.7,0,0,0,4.6,1.222c2.954.458,8.863,1.069,8.863,1.069s5.908-.61,8.863-1.069a18.7,18.7,0,0,0,4.6-1.222C931.308,60.712,929.83,50.634,917.849,50.634Z" transform="translate(-903.844 -49.706)" fill="#fcc232"/>
      <path id="Path_49817" data-name="Path 49817" d="M925.752,69.259a76.365,76.365,0,0,1-7.989.8,76.373,76.373,0,0,1-7.99-.8c-5.5-1.169-6.016-1.743-6.016-.674s7.933,3.562,14.006,3.562c6.236,0,14-2.493,14-3.562S931.251,68.09,925.752,69.259Z" transform="translate(-903.757 -52.081)" fill="#f9b234"/>
      <path id="Path_49818" data-name="Path 49818" d="M911.677,52.088s5.089,8.4,5.362,15.474h3.611c.273-7.075,5.362-15.474,5.362-15.474-1.583-1.6-4.7-2.553-7.4-2.528A10.713,10.713,0,0,0,911.677,52.088Z" transform="translate(-904.839 -49.559)" fill="#f9b234"/>
    </g>
  </g>
</svg>
