<svg xmlns="http://www.w3.org/2000/svg" width="21.369" height="23.192" viewBox="0 0 21.369 23.192">
  <g id="Group_224" data-name="Group 224" transform="translate(0)">
    <path id="Path_12" data-name="Path 12" d="M647.813,345.97v2.453h-1.772a1.093,1.093,0,0,0-1.094,1.092v2.055H647.7l-.357,2.829h-2.4v7.132h-2.923v-7.151h-2.406v-2.81h2.424V349.1a3.2,3.2,0,0,1,3.278-3.19Z" transform="translate(-633.935 -342.335)" fill="#3a325e"/>
    <path id="Path_1565" data-name="Path 1565" d="M653.678,390.261H640.349a4.166,4.166,0,0,1-4.02-4.289V371.358a4.165,4.165,0,0,1,4.02-4.289h13.329a4.165,4.165,0,0,1,4.02,4.289v14.614A4.166,4.166,0,0,1,653.678,390.261Zm-13.571-21.087a1.864,1.864,0,0,0-1.8,1.919v15.143a1.864,1.864,0,0,0,1.8,1.919H653.92a1.864,1.864,0,0,0,1.8-1.919V371.094a1.864,1.864,0,0,0-1.8-1.919Z" transform="translate(-636.329 -367.069)" fill="#3a325e"/>
  </g>
</svg>
