<svg xmlns="http://www.w3.org/2000/svg" xmlns:xlink="http://www.w3.org/1999/xlink" width="749" height="429" viewBox="0 0 749 429">
  <defs>
    <clipPath id="clip-path">
      <rect id="Rectangle_4578" data-name="Rectangle 4578" width="749" height="429" transform="translate(14219 -365.45)" fill="#3a325e" stroke="#707070" stroke-width="1"/>
    </clipPath>
  </defs>
  <g id="Mask_Group_1" data-name="Mask Group 1" transform="translate(-14219 365.45)" clip-path="url(#clip-path)">
    <g id="Group_23454" data-name="Group 23454" transform="translate(14219 -331.333)">
      <g id="Bg" transform="translate(0 355.114)">
        <path id="Path_50618" data-name="Path 50618" d="M0,1122Z" transform="translate(0 -1122)" fill="#3a325e"/>
      </g>
      <g id="Object" transform="translate(8.027 0)">
        <g id="Group_23453" data-name="Group 23453" transform="translate(0 0)">
          <g id="Group_23452" data-name="Group 23452">
            <path id="Path_50601" data-name="Path 50601" d="M400.077,804.784c-.107-1.716.107-8.474.643-9.439a6.446,6.446,0,0,1,2.36-2.253c.429-.107,6.006-4.5,6.328-4.612s2.038-5.041,2.574-6.436a12.429,12.429,0,0,0,.965-4.076,46.626,46.626,0,0,1,.644-6.114c.215-.644,1.073-.429,1.073-.429l1.287-.858s2.038-5.041,1.073-7.723c0,0,7.723-3,8.474-3.218s3.111-.751,3.111-.751a33.655,33.655,0,0,0,.107-6.436c-.322-2.789-1.823-41.189-3-48.483s-4.72-27.566-6.114-32.286-8.9-10.834-11.262-13.515-4.505-3.111-5.363-3a4.04,4.04,0,0,1-3.11-1.716,9.96,9.96,0,0,0-2.789-2.253s.429-5.363.429-5.792-.858-1.394-.858-1.394,2.574-6.972,3.218-7.937,3.647-5.256,3.647-5.256,0,1.287.751,1.287,3.969-5.363,3.969-6.865a8.783,8.783,0,0,0-.644-3s1.716-5.792,1.931-6.865.643-3.218.214-4.291-1.5-2.252-1.716-3.325a5.2,5.2,0,0,0-.751-1.823s-2.574-2.789-3.432-3.11a9.4,9.4,0,0,1-2.789-2.038c-.429-.536-2.789-.643-3.111-.751s-2.252-1.287-3-1.18-1.824.214-2.36.322-2.145-.107-2.574,0a5.869,5.869,0,0,0-2.038.966c-.429.429-2.681-.322-3.218.536s-.965.966-1.716,1.609-1.394,0-2.038.751a17.442,17.442,0,0,0-2.252,4.72c-.214,1.073-.751.966-.644,2.038a3.923,3.923,0,0,1-.429,2.467c-.429.966-.751,0-.429.966a5.035,5.035,0,0,1,.107,2.145,3.98,3.98,0,0,0-2.145,1.395c-.966,1.18-.429,2.36-.536,3a12.762,12.762,0,0,0-.108,3.54,2.236,2.236,0,0,0,1.18,1.5,5.679,5.679,0,0,0,1.716-.429s0,1.931.107,2.789a20.936,20.936,0,0,1-.643,4.183c-.214,1.072-1.073,4.29-1.073,4.29l-1.18.536s-3.755,3-4.076,3.325a3.3,3.3,0,0,1-.751.537s-10.3,0-12.443-.751-8.045-1.287-9.118-.858-3.325-.107-5.685,1.609-4.612,2.574-6.65,7.294-2.038,3.861-2.038,3.861-4.291,8.26-5.685,11.048-7.938,16.411-9.224,18.128-3.755,8.152-4.4,8.9-2.038,6.436-2.575,7.187-2.038,8.474-2.038,9.761a25.188,25.188,0,0,0,.751,4.183s2.038,2.038,1.823,3.755.858,7.4,1.287,10.19.643,3.969.429,4.934a29.265,29.265,0,0,0,.643,7.187c.429,1.5,1.931,5.149,2.36,6.329a2.482,2.482,0,0,0,1.394,1.5l-1.287,4.076s.643,2.467.965,3.754.751,20.487.644,22.1-.751,11.263-.751,13.3c0,1.872-2.353,33.334-3.65,42.189h82.626C398.31,820.91,400.155,806.03,400.077,804.784Z" transform="translate(-181.212 -405.747)" fill="#3a325e"/>
            <g id="Group_23448" data-name="Group 23448" transform="translate(259.187 154.363)">
              <path id="Path_50602" data-name="Path 50602" d="M682.843,532.4a5.621,5.621,0,0,0-.664-.759s-2.611-.214-3.276-.4l-.047.736a2.288,2.288,0,0,1,.617.38c.214.214.285.427.451.5a2.807,2.807,0,0,1,.878.451c.19.214.427.237.665.4a7.808,7.808,0,0,0,1.875.332c.451.048,1.187.143,1.187.143S683.1,532.777,682.843,532.4Z" transform="translate(-646.494 -522.343)" fill="#3a325e"/>
              <path id="Path_50603" data-name="Path 50603" d="M702.964,764.988c-.59-6.689-1.771-21.838-1.476-24.1s.885-3.443.689-5.312-.984-18.494-.886-19.97-.2-5.115-.2-5.115a74.822,74.822,0,0,0,4.919,6.492c1.476,1.476,2.755.492,3.05.59s-1.082,2.755,0,5.115a41.91,41.91,0,0,1,2.361,5.8c.2.984,0,4.427.1,5.411l-1.377,1.475s-2.263-.492-2.656.492a1.589,1.589,0,0,0,.3,1.672s-1.082,1.082-.492,1.771a1.38,1.38,0,0,0,1.181.59s.1,1.082,1.082,1.082a6.7,6.7,0,0,0,1.672-.2,15.548,15.548,0,0,0,2.263-.2c1.18-.2,2.558-1.181,3.247-1.377a11.56,11.56,0,0,0,1.967-.984l.688-1.279a4.581,4.581,0,0,0,.984-1.377c.59-1.082.492-4.525.886-5.116a4.678,4.678,0,0,0,.59-2.164c.1-.885-2.361-4.722-2.852-5.9s-2.361-6.2-2.361-6.2,3.05.984,3.935.393.689-2.459.689-2.459l2.066-.1s2.656-2.459,2.361-2.557-1.672-6.984-1.476-7.476-4.623-16.035-5.115-17.51,0-19.576-.59-24.692-4.132-18.2-4.329-20.363-.787-10.329-1.377-11.8-4.427-6.788-6-7.181a35.047,35.047,0,0,1-4.23-1.574s-3.541-2.853-4.23-2.853a.924.924,0,0,1-.885-.59l-.1-.492L694.9,615.56a5.993,5.993,0,0,0,.885-2.558,5.673,5.673,0,0,0-.1-1.967,9.4,9.4,0,0,0,1.181-2.164l.2-.787a12.935,12.935,0,0,0,4.427-4.82c1.377-2.951,2.164-6.2,1.672-8.656s-.394-12.887-1.574-15.543-3.837-6.886-5.705-8.362-3.837-3.246-4.526-3.64a19.757,19.757,0,0,0-2.754-.984,29.938,29.938,0,0,0-6.042-.812c-2.056.129-3.341,1.67-4.5,2.827s-2.7,1.8-3.726,2.827a28.954,28.954,0,0,0-2.955,3.726c-.9,1.285-.771,2.056-1.285,3.341s-.128,4.112-.9,4.754-.771,1.028-1.157,2.184-.128,1.542-.128,2.826.643,4.112.771,5.268.642,1.542.771,2.441a34.413,34.413,0,0,0,1.8,4.24,3.935,3.935,0,0,1,.257,2.313v5.4l-2.7,2.313a8.153,8.153,0,0,1-.385-2.184c0-1.028-1.285-4.754-1.542-5.911s-.771-1.67-.771-3.084.385-3.341-.128-5.139a7.723,7.723,0,0,1-.514-3.726,44.4,44.4,0,0,0-.257-5.4l1.927-2.57s-.128-1.928-.128-3.212-2.056-4.24-2.955-5.14-3.084-3.469-2.441-4.626a8.069,8.069,0,0,0,.771-6.039c-.643-3.084-5.654-2.441-7.452-2.184s-2.056-5.4-2.056-5.4a64.429,64.429,0,0,1-1.637-10.258l-.224-1.514s-2.159-13.565-2.454-15.433a24.138,24.138,0,0,0-1.476-5.509,9.635,9.635,0,0,0-3.345-2.754,11.029,11.029,0,0,1-3.443-2.263,9.921,9.921,0,0,0-2.065-1.771s1.475-3.64.295-4.427c-.834-.556-2.066,1.279-2.853,3.443a10.33,10.33,0,0,0-.787,4.525,34.289,34.289,0,0,0,.1,4.328c.3,1.673.394,3.05,1.18,3.64s3.345,2.656,4.23,3.443a7.935,7.935,0,0,1,1.475,1.869s.591,8.362,1.18,13.28,1.18,14.264,2.066,17.412,1.082,3.837,1.082,4.526-1.18,1.377-1.574,2.263-13.969,21.248-15.937,26.069-6.886,12.69-7.28,13.576-9.05,3.837-10.624,4.919-4.328,10.723-5.213,11.313,9.345,9.05,12.2,11.214,6.493,5.607,8.165,6.3,1.279,1.082,3.64,1.869,4.033,1.476,4.427,2.558a33.472,33.472,0,0,0,2.361,5.115c.787,1.181-.1,8.755-.2,12s-1.377,12.3-1.476,13.969-1.672,14.952-2.066,17.019-2.361,17.019-2.853,19.969-3.148,16.723-2.951,20.265-.984,13.871-.689,17.019-1.672,11.608-2.951,13.871-4.034,11.116-4.034,11.116,4.323,1.614,7.625,2.607H703.5C703.4,774.554,703.235,768.06,702.964,764.988Zm-60.6-242.211a7.808,7.808,0,0,1-1.875-.332c-.237-.166-.475-.19-.665-.4a2.808,2.808,0,0,0-.878-.451c-.166-.071-.237-.285-.451-.5a2.29,2.29,0,0,0-.617-.38l.047-.736c.665.19,3.275.4,3.275.4a5.6,5.6,0,0,1,.665.759c.261.38,1.685,1.78,1.685,1.78S642.82,522.825,642.369,522.778ZM690.224,613.2a8.92,8.92,0,0,0-.268,1.126,2.716,2.716,0,0,0-.8-.429,3.946,3.946,0,0,0-1.233-.107s0-.59-.107-1.931a4.078,4.078,0,0,1,.751-2.575c-.054.751.644.536,1.073.7s.268.429.322.858.214.751.322,1.5S690.385,612.718,690.224,613.2Z" transform="translate(-605.521 -511.086)" fill="#3a325e"/>
            </g>
            <path id="Path_50604" data-name="Path 50604" d="M898.8,735.144c0-1.287-.143-2.431.858-2.86a4.4,4.4,0,0,0,2.717-3.146c.286-1.717.715-6.15.715-6.15l10.3-4.148s-14.3-28.889-15.16-31.321-2.574-14.158-2.86-17.162-2-23.026-2.288-26.744-.143-20.452-.715-26.458-1.144-9.3-1.43-11.87-1-5.006-.858-5.864,1.859-1,2.86.572,2.86,1.287,4.29,1,1.287-1,2.575-2,1.859,1.144,3.146-2.575.858-6.149,2.717-8.152,5.292-4.433,6.436-6.722-1.716-17.162-4.577-22.74-8.581-25.171-8.867-29.319-2.432-11.3-1.859-15.3,1.144-5.863.429-9.153-.572-4.433-1.573-5.577a6.29,6.29,0,0,0-1.573-1.43s-1.287,2.288-2,2.145-.429-14.158-1-17.877-.715-20.166-1.573-21.882a13.694,13.694,0,0,1-1.287-7.866c.572-2.717,1.573-5.435,1.717-6.722s2.288-4.863,3-5.864a34.557,34.557,0,0,0,1.859-3.289s-1.859-1.287-3-.143l2.288-4.577s-.572-1.716-3.146-.429-2.86,3-3.575,4.72-3.718,7.008-4.291,8.009-1.43.858-2.431,2.717a47.911,47.911,0,0,0-2,4.434s-1.716-5.149-4-4.577-1.716.858-.715,2.575a31.235,31.235,0,0,1,2.717,6.149,14.352,14.352,0,0,0,2.289,4.72c1,1.287,2.288,1,2.574,3.575s-.143,15.875-.286,20.738a154.894,154.894,0,0,1-1.43,15.589c-.429,2.289-.572,5.721-1,6.579s-2.288,2.717-2.86,4.863-3.289,5.721-3,10.583.715,4.291.715,4.291-1.859,3.289-1.43,5.435,1,2,.715,2.718-2.289,2.432-2.861,3.861a9.877,9.877,0,0,1-.521,1.073,11.532,11.532,0,0,0-.909-3.647c-2-4.291-6.579-13.587-9.01-14.588s-10.727-1.716-11.585-1.144-1.716,2.289-2.574,2.289a19.738,19.738,0,0,1-2-.143l-.715,1.573a9.584,9.584,0,0,0-2.288,1l-2.574.429-.143,2a15.192,15.192,0,0,0-5.435,7.437c-1.287,4.577-1.43,11.87-4.148,15.3a13.894,13.894,0,0,0,2.676-4.148c-.947,3.3-2.754,9.53-3.677,12.3l3.146-8.438s.429,6.15-1.43,9.582-9.582,13.015-11.584,15.589-4.577,3-6.722,4l2.861-.572s-5.435,4.862-7.008,7.008c0,0,5.006-4.72,7.151-5.721,0,0-7.437,9.868-7.866,11.727,0,0,6.435-8.724,7.866-9.3,0,0-7.866,26.172-8.581,30.891s-5.721,29.891-6.006,32.036-1.573,5.864,0,5.864,4.29,1.717,4.29,1.717l-.572,3.146a8.974,8.974,0,0,0,5.006,1.86s-.143,12.3-.429,14.016a20.1,20.1,0,0,0,.286,6.436c.429,2.288,1.144,10.726,1.43,11.87a3.648,3.648,0,0,0,1.287,1.859s3,5.578,3.862,6.579A50.766,50.766,0,0,0,820,702.966c.139.083.361.238.625.432-1.4,7.745-2.84,16.66-2.913,20.878a82.4,82.4,0,0,0,.82,11.681H898.52A1.6,1.6,0,0,0,898.8,735.144ZM821.545,698.4c-.088-.414-.442-1.709-1.406-1.589a32.509,32.509,0,0,1-2.145-4.434c-.143-.858-1.43-5.006-1.43-5.006s0-1,.858-.858.715,2.431,1.43,3.432c.7.979,1.4,3.73,3.711,3.179C822.279,694.578,821.928,696.384,821.545,698.4Zm49.509-152.186c-.286.715-1.43-.143-1.43.286s-.572,2.146-.572,1.716a51.518,51.518,0,0,0,.565-5.306C870.306,544.146,871.266,545.689,871.054,546.218Z" transform="translate(-453.989 -312.001)" fill="#3a325e"/>
            <path id="Path_50605" data-name="Path 50605" d="M117.138,719.212c.214-4.5,3.5-29.891,3.5-31.893s2.783-3,2.783-3l4.654-1.574,1.312,4.556s-1.492,6.563,1.79,8.65a53.837,53.837,0,0,0,5.07,2.983c2.289,1.144,12.655-.155,8.65-10.738-2.146-5.672-3.537-7.568-4.366-8.107-.607.06-1.015.082-1.015.082s.3-.549,1.015-.082c1.628-.159,4.73-.593,5.564-1.635,1.144-1.43,4.576-3.146,4.576-3.146l-.286-4.863a19.319,19.319,0,0,0,4.863-1.43c1.43-.858-17.734-48.912-19.45-54.347s-1.43-14.874-2.575-19.164,0-10.3-1.716-12.3-3.432-7.437-6.007-8.295-6.007-3.718-7.151-4.291-4.577-4-4.291-4.863-.858-1.144-.858-1.144l2-6.865,2.575-2.86s5.721-3.718,4.863-7.151l-1.43-1.43a23.351,23.351,0,0,1,1.43-4.863c.858-1.716.286-6.293.286-6.293a2.443,2.443,0,0,0-.765-.924c-.585-.457-.9-1.462-1.188-1.681s-.676-.512-.658-.6.238-.8.238-.8-.914,1.206-1.133,1.225.439-.859.457-.932-.128-.384-.128-.493.567-1.371.347-1.992a8.852,8.852,0,0,1-.859,1.718c-.183.055-.42-.292-.42-.292a5.19,5.19,0,0,0,.42-2.12s-.95,1.3-1.151,1.224.914-2.449-.4-3.271c0,0,.2,2.832-.42,2.8s-1.408-1.809-1.5-2.1.055-.95-.329-1.5a5.254,5.254,0,0,0-1.425-1.352s1.553,1.773.6,1.736c0,0-.421-1.133-1.005-1.425s-1.17-.347-1.3-.6-.549-.475-.366-1.115a2.2,2.2,0,0,1,.823-1.06,1.752,1.752,0,0,0-1.389.987c-.329.877,0-.091,0-.091l.439-.932a3.563,3.563,0,0,0-1.225.877.721.721,0,0,1-.749.347,1.784,1.784,0,0,1,1.06-1.023s-.4-.219-2.083.621c0,0-.035-.557.813-.788l.064-.016.014,0-.036.009a3.058,3.058,0,0,0-2.244.781s.183-.841,1.444-.987-.091-.037-.091-.037-3,.493-3.911,1.992c0,0-.968,1.353-.968,1.407s.621-2.559,2.467-3.089c0,0-2.613.2-3.491,2.211l.511-1.59a8.05,8.05,0,0,0-1.59,3.29,2.989,2.989,0,0,1,.311-2.413s-2.339,1.718-2.083,3.71a3.871,3.871,0,0,1,.187-2.659,10.833,10.833,0,0,0-1.685,3.847l-.146.439s-.457-2.138.293-3.125c0,0-2.211,2.631-2.139,4.093l-.164-2.174s-.8,2.633-.372,3.811c0,0-1.931.858-1.823,2.467s-.858,3.54-.751,5.792a16.384,16.384,0,0,1-.322,4.076s-.644-.644-1.287.751-.429,3.969-.429,4.72,1.072,2.575,1.716,2.682.858.751,1.18,1.931a29.1,29.1,0,0,0,1.18,3.111l.107,3.54-2.9,4.72-7.4-1.287s-9.117-6.865-9.332-7.294a8.811,8.811,0,0,1-.429-1.18,23.8,23.8,0,0,1-2.36-1.823c-.215-.322-9.976-15.446-12.872-16.948s-3.218-5.041-4.076-6.436-4.076-12.55-4.5-13.945,0-4.4,0-6.436-.858-3.647-.751-5.792S52.029,493.1,52.029,493.1a29.485,29.485,0,0,1-2.9-.751s.322-3.54,1.073-4.4,3.754-3.861,4.183-4.827a37.781,37.781,0,0,0,1.394-6.114,5.3,5.3,0,0,1,.322-1.5s4.183-.751,4.612-.858c0,0,.966-1.823-2.681-1.18l-1.609-.751s5.363-.322,6.543-.536,1.5-1.5,0-1.609-4.72.107-4.72.107-.429-1.5-1.395-1.394-2.575,1.18-3.647,1.18h-3s7.723-8.474,7.83-10.19c0,0-.537-2.038-2.467.322s-3,3.432-3,3.432,1.609-5.9.536-5.685-4.076,7.4-4.719,8.689a7.44,7.44,0,0,1-2.575,3c-.643.214-1.823.429-2.145,1.716a16.744,16.744,0,0,0-.536,3.218,55.255,55.255,0,0,1-.644,6.651c-.429,1.823-.429,3.54-1.18,5.149s-1.716,3-1.609,3.647-.965-.214-.965-.214-.536,4.612-.644,5.47-1.18,4.076-.751,6.865-.966,5.792-.966,8.259,1.5,13.837,1.394,17.484a101.358,101.358,0,0,1-1.5,11.37c-.429,2.789-6.65,35.826-6.972,40.438s-1.823,6.436-1.287,7.616-3.217,7.83-2.9,9.654-9.117,14.159-6.435,14.695,14.373-.965,18.449-1.072,8.8-3.218,11.37-4.183,6.65-3.218,7.938-2.9,3.325,4.183,3,5.792-2.789,9.439-3.969,12.335a165.578,165.578,0,0,0-4.505,16.2c-.858,3.862-.858,6.543-1.609,8.581s-4.934,14.052-5.792,18.128-3.54,19.522-4.183,24.885-.966,9.332-2.038,11.8-3.111,14.91-4.4,19.415-1.287,7.83-2.575,10.3-3.325,7.723-4.612,9.76a28.425,28.425,0,0,0-2.36,5.792,12.508,12.508,0,0,1,2.36,3.432,5.584,5.584,0,0,0,.375.892h89.067C116.048,739.893,116.991,722.282,117.138,719.212Z" transform="translate(-18.19 -327.255)" fill="#3a325e"/>
            <path id="Path_50606" data-name="Path 50606" d="M361.955,960.671s.408-.022,1.015-.082C362.252,960.122,361.955,960.671,361.955,960.671Z" transform="translate(-210.253 -607.758)" fill="#3a325e"/>
            <path id="Path_50607" data-name="Path 50607" d="M1187.551,681.926a25.088,25.088,0,0,0,.644-7.509c-.214-1.931-.214-4.72-.214-6.007s3.647-26.172,3.647-30.892a47.461,47.461,0,0,1,1.716-10.727l2.788,1.931,3.219-.643a9.8,9.8,0,0,0-1.5,2.36c-.858,1.716-.858,6.436-.644,7.938s-.858,6.865-.858,8.581,1.931,2.146,1.931,2.146,3-4.935,2.789-7.08,1.287-1.5,1.072-.858.858,2.574.858,4.505.858,1.931-.644,3.218-1.287,2.574-2.36,2.36-2.145-.858-3-.214-2.145-.644-2.145,1.073-1.287,1.072,0,1.716,2.36,1.717,3.432,1.287,4.076-.429,5.149-1.287,2.574-1.287,3.218-2.145,3.218-6.006,3.432-7.509a20.926,20.926,0,0,0-.429-5.363c-.214-1.072-1.5-5.363-1.5-6.006s1.287-1.716,1.287-2.36a22.8,22.8,0,0,1,.643-3l7.509-1.073s10.512-1.287,12.228-2.145-.644-12.872-1.073-15.446l1.931-1.072s-3.432-22.74-3.861-26.387-8.152-25.314-9.01-30.248a126.6,126.6,0,0,0-4.505-17.376c-1.287-3.218-4.505-6.865-6.65-10.3s-8.367-4.72-10.3-6.221-4.505-1.716-4.934-2.575-1.287-2.36-1.073-3.647a33.214,33.214,0,0,0,0-4.72l-3.218-1.5a58.951,58.951,0,0,1,1.073-6.65c.429-1.072,3-4.934,3-7.294a4.6,4.6,0,0,0,2.359-2.36,29.345,29.345,0,0,0,.429-6.007,5.475,5.475,0,0,0-1.287-2.789,38.145,38.145,0,0,0,.644-4.29,12.313,12.313,0,0,0-.214-3.862c-.429-1.5-.858-3.647-1.716-4.29a35.338,35.338,0,0,1-3.218-3.647s-2.575-3.217-5.363-3.647a34.588,34.588,0,0,0-5.578-.429c-1.073.214,1.5-1.073,1.5-1.073a9.054,9.054,0,0,0-3.432,1.073c-1.287.858-.858-.643-.858-.643a6.847,6.847,0,0,0-5.149,2.145,30.53,30.53,0,0,1-4.076,3.861c-1.5,1.287-.643,2.145-2.145,4.076s-2.574,1.5-2.574,3.647a17.876,17.876,0,0,0,1.287,5.792,3.927,3.927,0,0,1,0,2.36,7.218,7.218,0,0,0-1.073,4.5,19.57,19.57,0,0,0,2.36,5.149c.429.858,2.145.429,2.145.429s1.5,3.218,1.5,4.72.429,5.578.429,5.578a11.843,11.843,0,0,1-1.716,2.789c-.858.858-3.647,4.076-3.647,2.36s3.861-3.647,3.218-4.5-5.149-6.865-7.938-10.3-10.3-10.726-11.8-10.512-2.36,1.073-3.432-.215-10.512-28.317-11.37-30.677-6.221-11.584-6.865-13.515a18.43,18.43,0,0,1-.858-3.861c-.214-1.287-1.5-7.294-1.5-8.367s1.717-7.294,1.931-8.366.643-3.432,0-4.72-1.716-3.647-2.146-4.505,1.5-7.723,1.5-7.723l10.512-.858s3.861-16.733,2.359-24.456c0,0-4.076-6.006-4.291-6.865l-.215-.858a13.3,13.3,0,0,1-3,.858c-.858,0-5.363-.643-5.363-.643l-9.224-8.152s-1.278,4.12-2.847,9.821a10.7,10.7,0,0,0-3.8-3.457c-6.982-3.611-7.935-5.956-7.763-8.74a2.948,2.948,0,0,0,1.651-5.558,27.663,27.663,0,0,0,.034-3.257,9.705,9.705,0,0,1,2.192-4.706c1.765-2.193,1.123-5.508,1.123-5.508-.107.748,0,3.69-1.337,3.85s-2.406,2.941-2.406,2.941c0-.7-.054-1.07,1.39-3.048a5.265,5.265,0,0,0,1.07-3.85,6.58,6.58,0,0,1-1.765,2.513,5.768,5.768,0,0,0-1.337,1.658,12.28,12.28,0,0,1,2.246-5.776,22.3,22.3,0,0,1-1.818,1.711c-.856.748-1.284,3.1-1.284,3.1l-.053-1.337c.856-2.995-.267-3.958-.267-3.958.053.7.749,1.711-.321,3.155s-1.016,4.92-1.016,4.92a6.423,6.423,0,0,1-.428-3.583,5.651,5.651,0,0,0,.214,4.278c.588.909.749,3.315.642,5.455a5.9,5.9,0,0,0,.14,1.611,2.947,2.947,0,0,0,.658,5.232c-.081,1.842.54,4.89,4.788,7.178,3.218,1.733,5.439,3.136,7.2,6.09-2.458,9.02-5.484,21.468-5.484,28.091l8.862,8.258-.266.8a1.509,1.509,0,0,0-1.771,1.328c-.266,1.594-1.151,1.328-.885,3.276s-.443,6.551.354,8.765a66.906,66.906,0,0,1,2.125,6.463c.266,1.328.62,10.27.62,10.27l-.8.885a50.454,50.454,0,0,0,.531,8.5c.62,2.656,1.859,19.389,2.568,22.487s3.276,28.862,4.515,32.935-.354,22.4.266,27.534-1.771,8.765-.354,11.775a24.211,24.211,0,0,1,2.125,6.551c.531,2.391,2.125,6.994,2.833,7.88s3.01,3.63,3.984,3.541a2.143,2.143,0,0,0,1.417-.62A52.935,52.935,0,0,0,1129.9,564c-.354,3.9-3.1,14.873-3.542,16.024s-2.213,8.145-2.479,9.739a24.092,24.092,0,0,1-1.063,4.25c-.266.531-3.718,11.509-4.6,13.634s-4.339,23.2-4.25,29.836c0,0-10.932,22.564-12.219,37.367a53.559,53.559,0,0,0-.19,7.114h85.994Z" transform="translate(-620.513 -258.003)" fill="#3a325e"/>
            <g id="Group_23449" data-name="Group 23449" transform="translate(272.326 67.529)">
              <path id="Path_50608" data-name="Path 50608" d="M637.047,324.77c-1.138-1.005-1.752-1.59-1.752-1.59A8.63,8.63,0,0,0,637.047,324.77Z" transform="translate(-635.295 -319.268)" fill="#3a325e"/>
              <path id="Path_50609" data-name="Path 50609" d="M756.493,452.824a.364.364,0,0,0-.048-.019A.46.46,0,0,0,756.493,452.824Z" transform="translate(-702.982 -391.691)" fill="#3a325e"/>
              <path id="Path_50610" data-name="Path 50610" d="M690.082,372.86a4.059,4.059,0,0,0-2.144-3.844,45.256,45.256,0,0,1-5.1-4.105c-.231-.4-2.4-1.359-3.558-2.106a3.342,3.342,0,0,0-2.085-4.549,7.8,7.8,0,0,0-.051-1.033c-.485-4.226-4.044-9.89-7.934-12.627-4.1-2.886-3.506-5.311-3.241-5.963q1.642.9,3.345,1.779c18.462,9.464,28.235,12.1,28.235,12.1l-14.583-7.137-.776-4.965,7.6-14.117-7.6-4.965-3.1,2.638.155-4.034s-7.6-6.826-15.514-5.43c0,0-7.757,12.1-7.292,16.755,0,0-12.439-7.788-17.175-11.442A155.822,155.822,0,0,0,664.842,338c-.34.752-1.1,3.5,3.9,7.022,3.936,2.771,7.085,9.072,7.478,12.5a3.186,3.186,0,0,1,.009.591h-.006a3.344,3.344,0,0,0-1.91,6.093,6.325,6.325,0,0,0,1.2,2.512c1.961,2.51,5.413,5.57,7.322,7.766s.628,3.844.052,4.995a3.832,3.832,0,0,0,1.15-2.014,7.375,7.375,0,0,0-.235-3.295,5.213,5.213,0,0,1,1.046,4.289c-.523,2.537.026,1.647.628,2.72a3.366,3.366,0,0,1-.314-2.327,7.693,7.693,0,0,0,.052-4.288c-.418-1.124-.993-2.746-1.02-2.824s3.87,2.04,4.236,4.6,1.15,2.85,1.569,3.164c0,0-1.569-3.635-1.543-5.256a4.052,4.052,0,0,0-1.281-3.425,3.075,3.075,0,0,1,2.458,2.536c.247,2.029,1.033,1.975,1.338,2.074C690.766,375.338,689.945,374.848,690.082,372.86Z" transform="translate(-637.512 -314.316)" fill="#3a325e"/>
            </g>
            <path id="Path_50611" data-name="Path 50611" d="M179.595,293.323l-3.289-1.859-2.145-18.879s-23.169,22.311-25.886,24.6c0,0,1.144,14.731,3.861,23.169l6.484-7.253a18.975,18.975,0,0,0,2.1,3.809,11.249,11.249,0,0,1,1.6,9.027c-.034,0-.068,0-.1,0a2.594,2.594,0,0,0-2.646,2.538,2.441,2.441,0,0,0,.292,1.155,6.216,6.216,0,0,0-.649,3.041c0,2.887-.429,4.8-1.645,6.24s-.715,3.706-.715,3.073a3.088,3.088,0,0,1,.787-2.515,11.228,11.228,0,0,0,0,3.353c.286,1.723.071,2.235-.572,2.841a2.054,2.054,0,0,0,1.144-2.375,2.926,2.926,0,0,1,.572-2.7,8.47,8.47,0,0,0,.644,3.958c.858,1.77,1.287,2.7,1.287,2.7s-.715-3.166-.93-4.284a14.657,14.657,0,0,1-.214-2.375,7.336,7.336,0,0,1,1.788,3.539c.214,1.863.357,2.375,1.43,3.026,0,0-.929-2.375-.715-3.446s-.644-2.468-.715-2.794,1.716.7,2.145,2.934l.93,2.142a28.574,28.574,0,0,1-.715-3.446,4.877,4.877,0,0,0-.858-2.188,6.478,6.478,0,0,1,0-2.654c.143-.931,1.287-3.026,1.216-3.865-.058-.684-.069-2.452-.11-3.459a2.488,2.488,0,0,0,.9-1.9,2.529,2.529,0,0,0-1.483-2.278c.458-2.547-.056-6.362-4.094-13.2-.079-.133-.145-.265-.218-.4l1.506-1.684,8.152,4a13.548,13.548,0,0,0,6.435-3.575c2.432-2.717,5.435-8.009,5.578-11.155A21.974,21.974,0,0,0,179.595,293.323Z" transform="translate(-90.868 -223.471)" fill="#3a325e"/>
            <g id="Group_23450" data-name="Group 23450" transform="translate(148.276 114.989)">
              <path id="Path_50612" data-name="Path 50612" d="M413.133,434.878l.715-2.861s-7.58-6.149-13.587-7.294a71.658,71.658,0,0,1-10.584-2.86s-5.311,15.093-9.047,27.561l-.108.021c-8.8,1.636-14.636,2.848-17.55,4.625a2.7,2.7,0,0,0-3.812.652c-1.552.367-8.066,2.48-3.185,11.355,5.511,10.019,8.517,7.314,12.624,6.112s5.811.6,6.412,1.3c0,0-1.1-3.507-7.014-2.1a61.188,61.188,0,0,0,5.912-2.4c1.283-.733,4.068.376,4.842,1.108-.82-.917-4.563-4.7-8.449-2.11-.3.2-2.705-.7-3.707-.9,0,0,5.21-1.1,7.114-1.3s1.4-2.5,1.2-3.707a4.694,4.694,0,0,1-4.208,3.507c-3.507.3-3.306-.5-3.807-1s-1.8-.6-3.106-1-2.806-1.3-2.3-2.3c.443-.887,2.294-1.852,1.882-3.173a2.694,2.694,0,0,0,.142-3.507,17.423,17.423,0,0,1,3.586-1.535c2.815-.86,9.289-2.574,13.474-3.428-2.21,7.39-3.851,13.821-3.479,15.574,0,0,9.153,5.864,10.726,6.865s17.877,5.721,17.877,5.721l2.145-11.156s7.58-1.43,9.3-3.289,8.724-14.731,9.725-17.591l1-2.86Z" transform="translate(-354.193 -421.863)" fill="#3a325e"/>
            </g>
            <path id="Path_50613" data-name="Path 50613" d="M937.376,185.565v-1.67l10.355-11.022-26.293,19.291a52.905,52.905,0,0,1-2.933-9.772c-.582-2.719,1.206-4.928,2.805-6.3a2.059,2.059,0,0,0,3.435-.28c.924-.483.923-2.9,1.4-3.555.52-.709,1.134-1.418,2.315-3.119a17.95,17.95,0,0,1,3.827-3.5c-1.181-.094-3.686,1.843-3.591,1.654a7.833,7.833,0,0,1,2.221-1.843c.756-.283,1.134-.567,1.087-1.276a9.246,9.246,0,0,0-.331-1.654,12.691,12.691,0,0,1-1.229.709c.142-.142.756-.85.756-.85l-1.086-.8-.142.378s-1,1.286-1.626,2.154c.323-.6.707-1.374.87-1.729a2.3,2.3,0,0,0,.237-1.087s-1.087,1.937-1.748,2.883-1.607.992-2.977,2.5-.709,2.458-.52,3.828a3.022,3.022,0,0,1-.9,2.259,2.058,2.058,0,0,0-.378-.038,2.059,2.059,0,0,0-2.017,2.564,5.427,5.427,0,0,0-2.58,2.759c-2.442,5.006.917,11.258,2.9,14.26L917,195.418l-21.71,20.041,14.2-7.849c1.169,5.845,10.02,18.037,10.02,18.037l2.839-2.672s0-5.511.167-6.012,2.338,3.841,2.338,3.841a35.245,35.245,0,0,0,4.008-4.676c.835-1.5,19.206-20.208,19.206-20.208Z" transform="translate(-508.23 -161.291)" fill="#3a325e"/>
            <g id="Group_23451" data-name="Group 23451" transform="translate(626.021 67.106)">
              <path id="Path_50614" data-name="Path 50614" d="M1492.325,341.384l-5.942,5.217s3.37-6.74,3.857-7.495c-.932.279-13.284-3.454-17.77-1.491a45.585,45.585,0,0,0-8.551,5.073s-16.812-8.986-17.536-8.262c-.224.225.894,10.681,1.992,20.435-3.431-3.055-5.943-6.889-5.542-11.456.429-4.883.325-7.632,0-9.218a2.529,2.529,0,0,0,.212-3.593c.145-1.432-.494-3.526-.924-6.782-.5-3.79,2.074-9.01,2.074-9.01-1.859.786-3.289,9.582-3.5,8.51s.5-4,1.072-5.578,1.216-4.291.93-4.362-2.717.143-2.717.143V315.3l-.786-1.859s-1.5-.286-.858.429.143,3.289.143,3.289c0-2.074-1.859-4.648-1.144-3.218a2.271,2.271,0,0,1,.1.249c.594,1.672.419,6.149-.462,10.692a7.512,7.512,0,0,0,1.717,6.81,2.534,2.534,0,0,0,3.755,2.775,4.374,4.374,0,0,1-.037,1.785c-.644,2.789-1.43,13.73,1.716,15.8.864.569,2.419,1.835,4.314,3.33.948,8.407,1.862,16.142,1.862,16.142s30.291,16.087,33.769,16.667l-1.159-18.841s1.594-2.174,2.029-2.608,7.536-14.2,7.971-14.928S1492.325,341.384,1492.325,341.384Z" transform="translate(-1436.79 -313.358)" fill="#3a325e"/>
              <path id="Path_50615" data-name="Path 50615" d="M1557.912,371.618c.031-.01.052-.023.056-.042C1557.981,371.525,1557.959,371.544,1557.912,371.618Z" transform="translate(-1504.461 -345.869)" fill="#3a325e"/>
            </g>
            <path id="Path_50616" data-name="Path 50616" d="M1500.649,788.972c-2-4.291-4.433-18.306-4.719-24.17s-1.287-25.171-2.574-29.032-3-10.3-3-10.3l1.287-4.434s10.869,4.29,11.87,4.577a9.481,9.481,0,0,1,2.431,1.43l.286,1.573s4,.572,4.72.572,1.144.715,1.573.572,6.293-.858,6.293-.858v-1.859s1.86.286,2-1.287-1.43-7.58-2-9.01-7.58-17.3-9.3-24.6-12.3-42.763-13.158-47.339-.858-5.149-.858-5.149-2.86-7.437-4.433-9.439-8.152-8.867-8.152-8.867.715-8.152-.286-11.3-2.431-7.151-2.431-7.58,1.43-3.289,1.287-3.861a59.906,59.906,0,0,0-3-5.435,12.388,12.388,0,0,0-3.432-3.718,16.838,16.838,0,0,1-3.432-3.718c-.715-1-4-2.145-5.006-2.574s-.429-3.433-1.716-3.719-6.579-.286-7.008-.429-3-3.289-6.578-1.573-2.432-.715-4.434,1.144-7.294,4.863-7.866,5.72-3.861,2.575-5.006,5.006-1.859,7.58-1.859,9.439.143,5.578.143,7.008a4.566,4.566,0,0,0,1.144,3.432c1,1.287-1.144,3.146,0,3.718a8.377,8.377,0,0,1,3.146,2.717c.572,1,.286,2.432,1.573,2.574s3.29,2,4.148,2.432a9.01,9.01,0,0,1,3,3.146c.286.858,1.287,3.146,1.287,3.146l-2.289,1a4.177,4.177,0,0,0-2.574-1.573,10.641,10.641,0,0,1-4.434-1.717,6.778,6.778,0,0,0-2.717-1.716,4.077,4.077,0,0,1-2-1.717l-.429-2.288s-1.716,1.287-2.718.572-1.144-1.573-1.716-2-1-1.574-2.288-1.86a2.062,2.062,0,0,0-2,.572l-1.716-.572-1.859-1.144a12.471,12.471,0,0,1-1.287-2.431c0-.429-.572-4.147-1.287-4.434s-2-.858-2-2-.429-4.147-.858-4.577-.715-1.43-1.287-2.288-1.859-3.289-2.717-4.577a35.946,35.946,0,0,0-3.576-3.861l-.858-1.144s-3.146-10.44-4.147-16.447a148.672,148.672,0,0,1-1.43-15.589c0-.715,1.144,0,1-1.144s-.858-1.287-.572-2.288a11.8,11.8,0,0,1,1.716-3.861,49.315,49.315,0,0,0,2.86-4.577c.572-.858,1.43-6.149,2.288-7.294s2.432-2,2.432-2.431-1.43-1.43-2.861-.429a26.307,26.307,0,0,0-3.575,3.575s-1.43-10.011-3.575-10.011c-2.188,0-.715,3.432-.143,4.863a17.183,17.183,0,0,1,.572,4.576l-.143.858-.858-.858s-.715-4.29-1.859-4.29a2.517,2.517,0,0,0-2.718,1.716s-2.145-.286-2.574,1.144l-.429,1.43s-1.573,0-2.145.858a5.743,5.743,0,0,0-.715,3.575c.286.572.143,4,.286,5.434s.429,4.148.429,4.148l.715,1.43s-1.43.286-1,1.43,1.287.858,1.287.858a18.8,18.8,0,0,1,.429,4.148c-.143,1.43-1.287,14.444-1,17.019s.143,11.727.715,13.73c0,0-9.3,9.01-9.01,10.584a54.214,54.214,0,0,0,2.288,8.867c1,2.288,2.575,28.6,3.718,33.466a177.28,177.28,0,0,0,6.293,19.164c1.573,3.719,6.579,22.6,10.011,24.885s5.435,2.574,6.15,2.288,3,2.574,3,2.574-1,20.88-1.573,24.885-3.147,34.753-3.433,37.9-1.859,25.028-1.859,27.316c0,1.172.225,4.517.463,7.83h94.221A12.252,12.252,0,0,0,1500.649,788.972Z" transform="translate(-780.123 -366.553)" fill="#3a325e"/>
          </g>
        </g>
      </g>
    </g>
  </g>
</svg>
