<svg xmlns="http://www.w3.org/2000/svg" width="20.331" height="19.882" viewBox="0 0 20.331 19.882">
  <path id="Path_1563" data-name="Path 1563" d="M12.31,10A2.3,2.3,0,0,0,10,12.259V27.623a2.3,2.3,0,0,0,2.31,2.259H28.021a2.3,2.3,0,0,0,2.31-2.259V12.259A2.3,2.3,0,0,0,28.021,10Zm0,1.807H28.021a.447.447,0,0,1,.462.452V27.623a.447.447,0,0,1-.462.452H12.31a.447.447,0,0,1-.462-.452V12.259A.447.447,0,0,1,12.31,11.807Zm2.715,1.553a1.554,1.554,0,1,0,1.588,1.553A1.571,1.571,0,0,0,15.025,13.361Zm8.346,4.123a2.862,2.862,0,0,0-2.57,1.384h-.058V17.682h-2.6v8.586h2.715V22.031c0-1.119.227-2.2,1.646-2.2,1.4,0,1.415,1.264,1.415,2.259v4.18h2.715V21.551C26.635,19.242,26.133,17.484,23.371,17.484Zm-9.675.2v8.586H16.44V17.682Z" transform="translate(-10 -10)" fill="#3a325e"/>
</svg>
