<svg id="Group_18972" data-name="Group 18972" xmlns="http://www.w3.org/2000/svg" width="115.501" height="132.464" viewBox="0 0 115.501 132.464">
  <path id="Path_31159" data-name="Path 31159" d="M101.386,357.266c-.042.015-.084.032-.127.046l.11.1Z" transform="translate(-29.238 -286.578)" fill="#fbfbfb"/>
  <path id="Path_31160" data-name="Path 31160" d="M82.264,327.256c-.411,1.437-.725,2.947-1.037,4.481-.353,1.525-.511,3.115-.778,4.677-.2,1.574-.321,3.159-.483,4.709-.062,1.558-.122,3.091-.18,4.575.029,1.484.057,2.917.083,4.277,0,1.357.193,2.637.268,3.817.111,1.18.156,2.263.33,3.213.142.952.265,1.78.368,2.464l.137.922.181,1.221-.134.019c.248.048.5.1.756.142s.49.086.742.127a47.05,47.05,0,0,0,6.5.588V350.1a6.087,6.087,0,0,1,0-12.084v-11.2a44.662,44.662,0,0,1-6.45-.639C82.463,326.536,82.353,326.886,82.264,327.256Z" transform="translate(-32.274 -290.973)" fill="#3a325e"/>
  <path id="Path_31161" data-name="Path 31161" d="M76.763,360.526c.53.169,1.158.357,1.876.549-.015-.168-.031-.348-.049-.549-.015-.175-.032-.358-.049-.557-.063-.711-.138-1.573-.225-2.562-.119-.985-.1-2.11-.142-3.33-.006-1.221-.118-2.541-.04-3.94.057-1.4.116-2.867.179-4.39.151-1.515.307-3.081.466-4.67.26-1.577.477-3.184.781-4.775.368-1.58.627-3.178,1.077-4.708.411-1.539.822-3.049,1.324-4.479.1-.332.221-.644.332-.967a37.483,37.483,0,0,1-3.779-.931c-2.668,8.306-4.206,19.727-2.436,35.082C76.284,360.37,76.51,360.445,76.763,360.526Z" transform="translate(-32.905 -291.109)" fill="#3a325e"/>
  <path id="Path_31162" data-name="Path 31162" d="M79.35,374.7c.83.633,4.424,3.039,11.027,3.039,6.646,0,10.2-2.4,11.028-3.037q1.214-4.883,2.057-9.372l-4.648-6.682a45.618,45.618,0,0,1-8.486.8A48.409,48.409,0,0,1,81.9,358.7l-4.608,6.626Q78.14,369.817,79.35,374.7Z" transform="translate(-32.626 -286.384)" fill="#3a325e"/>
  <path id="Path_31163" data-name="Path 31163" d="M82.99,327.237c.522-1.283,1.044-2.484,1.56-3.576s1.012-2.08,1.493-2.936c.451-.869.911-1.591,1.263-2.2.743-1.194,1.221-1.839,1.221-1.839s-.438.673-1.107,1.9c-.314.627-.727,1.37-1.124,2.261-.426.878-.853,1.891-1.306,3s-.893,2.332-1.331,3.63c-.158.5-.322,1.019-.484,1.539a41.4,41.4,0,0,0,18.7-1.063,41.753,41.753,0,0,0-8.748-14.993L92.9,311.6l-.212-1.286L90.2,295.333l-2.484,14.984L87.5,311.6l-.229,1.387a41.959,41.959,0,0,0-8.721,14.985,37.385,37.385,0,0,0,3.812.9C82.573,328.323,82.787,327.77,82.99,327.237Z" transform="translate(-32.448 -295.333)" fill="#e28f25"/>
  <path id="Path_31164" data-name="Path 31164" d="M89.218,338.155a6.087,6.087,0,0,1,0,12.084v12.394a43.1,43.1,0,0,0,12.835-2.1q.621-.2,1.245-.43c1.743-15.277.21-26.638-2.447-34.9a40.8,40.8,0,0,1-11.633,1.771Z" transform="translate(-30.94 -291.112)" fill="#3a325e"/>
  <path id="Path_31165" data-name="Path 31165" d="M77.479,387.992l2.638,1.588,3.84-9.172c-.073-.015-.143-.032-.215-.048Z" transform="translate(-32.6 -283.314)" fill="#3a325e"/>
  <path id="Path_31166" data-name="Path 31166" d="M94.44,380.388l3.849,9.195,2.638-1.588-6.28-7.654Z" transform="translate(-30.202 -283.317)" fill="#3a325e"/>
  <path id="Path_31167" data-name="Path 31167" d="M79.15,358.136l-1.106,1.02-.7.647-.679.626-8.73,8.054-3.367,16.136h8.674V371.113l4.211-6.055.613-.881.627-.9,3.3-4.739Z" transform="translate(-34.425 -286.456)" fill="#989a9a"/>
  <path id="Path_31168" data-name="Path 31168" d="M103.006,360.429l-.679-.626-.7-.644-1.109-1.023-2.838.4,3.3,4.742.625.9.613.881,4.211,6.054v13.506H115.1l-3.367-16.136Z" transform="translate(-29.744 -286.456)" fill="#989a9a"/>
  <path id="Path_31169" data-name="Path 31169" d="M101.951,374.056c-.027.018-.07.043-.1.063-.252.169-.578.364-.951.571a16.441,16.441,0,0,1-1.84.867,19.582,19.582,0,0,1-2.356.77,26.025,26.025,0,0,1-12.571,0,19.561,19.561,0,0,1-2.355-.77,16.245,16.245,0,0,1-1.84-.867c-.373-.207-.7-.4-.951-.571l-.1-.063-.494.784-1.416,2.253a28.88,28.88,0,0,0,26.882,0l-1.418-2.251Z" transform="translate(-32.67 -284.205)" fill="#3a325e"/>
  <path id="Path_31170" data-name="Path 31170" d="M102.494,356.153h0Z" transform="translate(-29.064 -286.736)" fill="#fbfbfb"/>
  <path id="Path_31171" data-name="Path 31171" d="M84.532,342.41a4.576,4.576,0,0,0,3.81,4.5,4.489,4.489,0,0,0,.769.078h0a4.489,4.489,0,0,0,.769-.078,4.58,4.58,0,0,0-.769-9.081h0a4.661,4.661,0,0,0-4.579,4.579Z" transform="translate(-31.603 -289.326)" fill="#989a9a"/>
  <path id="Path_31172" data-name="Path 31172" d="M86.622,390.751h5.013l-2.487-9.759Z" transform="translate(-31.307 -283.225)" fill="#3a325e"/>
  <path id="Path_31173" data-name="Path 31173" d="M58.256,374.505a5.537,5.537,0,0,1,.24-1.064,5.837,5.837,0,0,1,1.1-1.931,6.472,6.472,0,0,1,.822-.788,6.118,6.118,0,0,1,2.064-1.045,7.107,7.107,0,0,1,1.17-.207,7.227,7.227,0,0,0-1.205.03,7.021,7.021,0,0,0-1.194.273,6.873,6.873,0,0,0-1.123.525,7.161,7.161,0,0,0-1.007.748,6.216,6.216,0,0,0-1.488,2.053,6.527,6.527,0,0,0-.414,1.23c-.031.17-.071.355-.1.523a9.306,9.306,0,0,0-1.423-.264,9.732,9.732,0,0,0-2.186.06,8.715,8.715,0,0,0-2.129.578,9.129,9.129,0,0,0-1.933,1.093,9.835,9.835,0,0,0-.864.71c-.263.262-.531.527-.769.815a9.167,9.167,0,0,0-1.23,1.882,9.432,9.432,0,0,0-.743,2.14c-.058.376-.155.828-.167,1.146l-.015.225a10.738,10.738,0,0,0-2.487,1.122,9.867,9.867,0,0,0-1.435,1.069A10.447,10.447,0,0,0,40.5,386.75l-.248.324-.269.38c-.165.249-.323.5-.469.766a10.819,10.819,0,0,0-1.194,3.377c-.051.3-.089.595-.116.894l-.032.471-.009.427a10.776,10.776,0,0,0,1.353,5.168c.143.256.307.524.479.782.139.207.345.485.522.708a10.5,10.5,0,0,0,5.157,3.493c.006.084.011.168.016.252a10.983,10.983,0,0,0,.166,1.122,9.273,9.273,0,0,0,1.972,4.018c.24.288.507.551.769.815a9.833,9.833,0,0,0,.864.709,9.121,9.121,0,0,0,1.932,1.093,8.8,8.8,0,0,0,2.135.58,8.16,8.16,0,0,0,1.093.087l.506.006c.248,0,.382-.017.579-.033a9.507,9.507,0,0,0,1.426-.265c.024.178.066.355.1.531a6.525,6.525,0,0,0,.413,1.225,6.208,6.208,0,0,0,1.487,2.052,7.225,7.225,0,0,0,1.006.749,5.805,5.805,0,0,0,2.317.8,7.124,7.124,0,0,0,1.205.031,7.079,7.079,0,0,1-1.171-.207,6.144,6.144,0,0,1-2.064-1.044,6.471,6.471,0,0,1-.822-.788,5.841,5.841,0,0,1-1.1-1.931,5.717,5.717,0,0,1-.242-1.071c-.01-.181-.047-.361-.04-.543a4.145,4.145,0,0,1,.021-.552l.135-.766-.882.205a8.771,8.771,0,0,1-1.862.24c-.14,0-.342,0-.431-.008l-.5-.047a6.1,6.1,0,0,1-.911-.148,7.662,7.662,0,0,1-1.713-.614,7.378,7.378,0,0,1-1.521-.983,8,8,0,0,1-.663-.612c-.2-.226-.4-.449-.578-.689a7.318,7.318,0,0,1-.886-1.548,7.945,7.945,0,0,1-.517-1.693,8.763,8.763,0,0,1-.1-.879,8.389,8.389,0,0,1,0-.929l.067-.819-.9-.232a8.739,8.739,0,0,1-4.635-3.05c-.151-.2-.263-.35-.419-.587-.122-.188-.234-.376-.349-.588a8.382,8.382,0,0,1-1.007-4.037l.007-.373.019-.326c.019-.233.046-.465.082-.7a8.4,8.4,0,0,1,.9-2.641c.111-.205.232-.407.358-.6l.189-.276.235-.314a8.249,8.249,0,0,1,.939-1.014,9.592,9.592,0,0,1,1.111-.865,8.473,8.473,0,0,1,2.569-1.151l.877-.228-.042-.826-.014-.252c0-.018,0-.139-.006-.072l0-.127.017-.5c0-.356.071-.564.095-.856a7.81,7.81,0,0,1,.517-1.688,7.287,7.287,0,0,1,.886-1.547c.176-.241.379-.463.576-.689a8.41,8.41,0,0,1,.663-.612,7.414,7.414,0,0,1,1.52-.983,7.757,7.757,0,0,1,1.72-.614,8.315,8.315,0,0,1,1.838-.2,8.549,8.549,0,0,1,1.86.24l.96.225-.208-.789a3.442,3.442,0,0,1-.019-.568A5.324,5.324,0,0,1,58.256,374.505Z" transform="translate(-38.158 -284.855)" fill="#3a325e"/>
  <path id="Path_31174" data-name="Path 31174" d="M142.5,392.962l-.031-.471c-.029-.3-.066-.6-.118-.894a10.742,10.742,0,0,0-1.194-3.377q-.219-.392-.469-.766l-.268-.38-.249-.324a10.522,10.522,0,0,0-1.246-1.321,9.928,9.928,0,0,0-1.435-1.069A10.768,10.768,0,0,0,135,383.238l-.015-.225c-.011-.318-.108-.77-.167-1.146a9.428,9.428,0,0,0-.742-2.14,9.264,9.264,0,0,0-1.23-1.882c-.24-.288-.507-.552-.77-.815a9.816,9.816,0,0,0-.863-.71,9.156,9.156,0,0,0-1.933-1.093,8.743,8.743,0,0,0-2.129-.578,9.734,9.734,0,0,0-2.186-.06,9.3,9.3,0,0,0-1.424.264c-.024-.168-.065-.353-.095-.523a6.611,6.611,0,0,0-.415-1.23,6.213,6.213,0,0,0-1.487-2.053,7.16,7.16,0,0,0-1.007-.748,6.963,6.963,0,0,0-1.123-.525,7.071,7.071,0,0,0-1.194-.273,7.244,7.244,0,0,0-1.206-.03,7.142,7.142,0,0,1,1.171.207,6.1,6.1,0,0,1,2.062,1.045,6.482,6.482,0,0,1,.823.788,5.854,5.854,0,0,1,1.1,1.931,5.628,5.628,0,0,1,.241,1.064,5.34,5.34,0,0,1,.039.533,3.585,3.585,0,0,1-.018.568l-.209.789.961-.225a8.539,8.539,0,0,1,1.859-.24,8.315,8.315,0,0,1,1.838.2,7.736,7.736,0,0,1,1.72.614,7.384,7.384,0,0,1,1.52.983,8.029,8.029,0,0,1,.663.612c.2.226.4.449.578.689a7.332,7.332,0,0,1,.885,1.547,7.747,7.747,0,0,1,.517,1.688c.024.292.092.5.095.856l.017.5,0,.127c0-.067,0,.054-.007.072l-.013.252-.042.826.875.228a8.491,8.491,0,0,1,2.57,1.151,9.679,9.679,0,0,1,1.109.865,8.348,8.348,0,0,1,.94,1.014l.234.314.189.276c.128.2.248.4.36.6a8.44,8.44,0,0,1,.9,2.641c.038.231.063.462.083.7l.018.326.008.4a8.415,8.415,0,0,1-.108,1.371,8.325,8.325,0,0,1-.339,1.358,8.426,8.426,0,0,1-.559,1.284c-.116.212-.228.4-.349.588-.158.236-.268.387-.42.587a8.736,8.736,0,0,1-4.634,3.05l-.9.232.067.819a7.86,7.86,0,0,1,0,.929,8.768,8.768,0,0,1-.1.879,7.816,7.816,0,0,1-.517,1.693,7.267,7.267,0,0,1-.886,1.548c-.177.241-.38.463-.578.689a7.823,7.823,0,0,1-.663.612,7.347,7.347,0,0,1-1.521.983,7.673,7.673,0,0,1-1.712.614,6.094,6.094,0,0,1-.912.148l-.5.047c-.088.007-.291.009-.431.008a8.76,8.76,0,0,1-1.86-.24l-.882-.205.135.766a4.142,4.142,0,0,1,.019.552,5.408,5.408,0,0,1-.04.543,5.543,5.543,0,0,1-.242,1.071,5.838,5.838,0,0,1-1.1,1.931,6.479,6.479,0,0,1-.823.788,6.693,6.693,0,0,1-.975.616,6.771,6.771,0,0,1-1.089.428,7.058,7.058,0,0,1-1.171.207,7.134,7.134,0,0,0,1.206-.031,7.039,7.039,0,0,0,1.193-.273,6.868,6.868,0,0,0,1.123-.525,7.092,7.092,0,0,0,1.006-.749,6.191,6.191,0,0,0,1.487-2.052,6.525,6.525,0,0,0,.413-1.225c.031-.176.074-.353.1-.531a9.48,9.48,0,0,0,1.426.265c.2.016.33.03.578.033l.506-.006a8.16,8.16,0,0,0,1.093-.087,8.81,8.81,0,0,0,2.137-.58,9.177,9.177,0,0,0,1.932-1.093,9.818,9.818,0,0,0,.863-.709c.262-.264.531-.527.769-.815a9.258,9.258,0,0,0,1.973-4.018,10.977,10.977,0,0,0,.164-1.122c.006-.084.01-.168.016-.252a10.5,10.5,0,0,0,5.158-3.493c.176-.223.381-.5.52-.708.172-.258.338-.526.479-.782a10.741,10.741,0,0,0,1.194-3.377,10.647,10.647,0,0,0,.159-1.815Z" transform="translate(-27.011 -284.855)" fill="#3a325e"/>
</svg>
