<svg xmlns="http://www.w3.org/2000/svg" width="15.612" height="14.056" viewBox="0 0 15.612 14.056">
  <path id="Path_48422" data-name="Path 48422" d="M1743.472,720.953l-3.781-3.405a5.461,5.461,0,0,0,1.376-4.442,6.274,6.274,0,0,0-5.628-5.059,6.968,6.968,0,0,0-5.455,1.671,5.529,5.529,0,0,0-1.862,4.911,6.267,6.267,0,0,0,5.621,5.072,7.523,7.523,0,0,0,.854.049,6.952,6.952,0,0,0,4.079-1.289l3.781,3.405a.774.774,0,0,0,1.014,0A.6.6,0,0,0,1743.472,720.953Zm-9.547-2.533a4.881,4.881,0,0,1-4.379-3.95,4.321,4.321,0,0,1,1.453-3.839,5.374,5.374,0,0,1,3.606-1.341,5.855,5.855,0,0,1,.657.037,4.885,4.885,0,0,1,4.383,3.941,4.31,4.31,0,0,1-1.436,3.839l-.012.007s0,.008-.008.011A5.44,5.44,0,0,1,1733.925,718.42Z" transform="translate(-1728.07 -708)" fill="#989a9a" opacity="0.57"/>
</svg>
