<svg id="Component_158_1" data-name="Component 158 – 1" xmlns="http://www.w3.org/2000/svg" width="33.153" height="34.273" viewBox="0 0 33.153 34.273">
  <g id="Component_71_1" data-name="Component 71 – 1">
    <g id="Group_15437" data-name="Group 15437">
      <path id="Path_397" data-name="Path 397" d="M132.512,211.735h-.021A.513.513,0,0,1,132,211.2c.045-1.094.067-2.211.067-3.322,0-2.4-.1-4.051-.126-4.356a15.827,15.827,0,0,0-.272-2,.513.513,0,1,1,1.006-.2,16.869,16.869,0,0,1,.289,2.13c.022.315.128,1.993.128,4.43,0,1.124-.023,2.256-.068,3.363A.513.513,0,0,1,132.512,211.735Zm-32.022-.324h-.037a.514.514,0,0,1-.475-.549c.062-.862.093-1.734.093-2.591,0-.828-.029-1.655-.087-2.46-.029-.4-.043-.805-.043-1.206a16.563,16.563,0,0,1,9.917-15.134.513.513,0,0,1,.41.942,15.536,15.536,0,0,0-9.3,14.193c0,.376.014.757.041,1.133.059.829.089,1.681.089,2.533,0,.882-.032,1.778-.1,2.665A.513.513,0,0,1,100.49,211.41ZM131.7,200.147a.514.514,0,0,1-.488-.355,15.516,15.516,0,0,0-15.848-10.629,15.678,15.678,0,0,0-3.423.631.513.513,0,0,1-.3-.983,16.652,16.652,0,0,1,7.416-.511,16.422,16.422,0,0,1,13.13,11.175.514.514,0,0,1-.489.672Z" transform="translate(-99.94 -188.096)" fill="#3a325e"/>
    </g>
    <g id="Group_15438" data-name="Group 15438" transform="translate(2.244 2.669)">
      <path id="Path_398" data-name="Path 398" d="M148.529,239.277a.514.514,0,0,1-.51-.576c.02-.163.038-.329.056-.494.156-1.482.266-3.044.327-4.642a.513.513,0,0,1,1.026.039c-.062,1.621-.173,3.206-.332,4.71-.019.175-.038.344-.058.512A.513.513,0,0,1,148.529,239.277Zm-26.769-1.193a.514.514,0,0,1-.507-.6,38.705,38.705,0,0,0,.55-6.524c0-.895-.031-1.789-.094-2.659-.024-.338-.037-.68-.037-1.016a13.756,13.756,0,0,1,2.055-7.241.513.513,0,1,1,.873.54,12.73,12.73,0,0,0-1.9,6.7c0,.312.012.629.034.943.064.895.1,1.814.1,2.733a39.773,39.773,0,0,1-.565,6.7A.514.514,0,0,1,121.761,238.084Zm27.2-5.834h-.008a.514.514,0,0,1-.506-.521c.006-.408.009-.8.009-1.172,0-2.1-.082-3.6-.117-4.145l0-.024a12.723,12.723,0,0,0-5.758-9.825.513.513,0,1,1,.561-.86,13.743,13.743,0,0,1,6.221,10.616l0,.027c.036.555.119,2.077.119,4.211,0,.377,0,.773-.009,1.186A.514.514,0,0,1,148.965,232.25Zm-23.724-12.925a.513.513,0,0,1-.4-.841q.1-.127.213-.251a13.777,13.777,0,0,1,9.489-4.752,14,14,0,0,1,6.921,1.289.513.513,0,1,1-.437.929,12.974,12.974,0,0,0-6.412-1.194,12.757,12.757,0,0,0-8.786,4.4q-.1.115-.2.233A.512.512,0,0,1,125.241,219.325Z" transform="translate(-121.247 -213.447)" fill="#3a325e"/>
    </g>
    <g id="Group_15439" data-name="Group 15439" transform="translate(4.466 5.358)">
      <path id="Path_399" data-name="Path 399" d="M164.468,264.023a.52.52,0,0,1-.078-.006.513.513,0,0,1-.43-.585c.133-.866.247-1.76.342-2.659a70.639,70.639,0,0,0,.371-7.367c0-1.5-.043-2.669-.08-3.39a.513.513,0,0,1,1.026-.052c.037.733.081,1.925.081,3.442a71.629,71.629,0,0,1-.377,7.475c-.1.914-.213,1.825-.348,2.706A.514.514,0,0,1,164.468,264.023Zm-21.6-.627a.514.514,0,0,1-.5-.636,39.267,39.267,0,0,0,.988-8.95c0-.964-.034-1.925-.1-2.856-.019-.271-.029-.545-.029-.814s.009-.515.026-.769a.513.513,0,0,1,1.025.07c-.016.231-.024.466-.024.7s.009.495.027.741c.068.955.1,1.94.1,2.929a40.328,40.328,0,0,1-1.018,9.2A.514.514,0,0,1,142.864,263.4Zm22.046-14.73a.513.513,0,0,1-.5-.418,10.17,10.17,0,0,0-8.394-8.134q-.216-.034-.434-.059a.513.513,0,0,1,.117-1.02q.24.027.478.065a11.2,11.2,0,0,1,9.243,8.958.514.514,0,0,1-.505.609Zm-20.862-.571a.521.521,0,0,1-.124-.015.514.514,0,0,1-.375-.622,11.215,11.215,0,0,1,10.069-8.468l.143-.009a.514.514,0,0,1,.059,1.025l-.129.008a10.187,10.187,0,0,0-9.144,7.69A.514.514,0,0,1,144.048,248.1Z" transform="translate(-142.35 -238.98)" fill="#3a325e"/>
    </g>
    <g id="Group_15440" data-name="Group 15440" transform="translate(6.737 8.01)">
      <path id="Path_400" data-name="Path 400" d="M180.59,289.073a.52.52,0,0,1-.11-.012.514.514,0,0,1-.392-.611,50.227,50.227,0,0,0,.86-5.422,67.976,67.976,0,0,0,.358-7.089v-.319a.514.514,0,0,1,.512-.516h0a.513.513,0,0,1,.513.512v.323a69.034,69.034,0,0,1-.363,7.2,51.263,51.263,0,0,1-.878,5.533A.514.514,0,0,1,180.59,289.073Zm-16.153-1.384a.514.514,0,0,1-.491-.666,39.691,39.691,0,0,0,1.374-10.775c0-1.012-.034-2-.1-2.948-.015-.206-.022-.415-.022-.619a8.447,8.447,0,0,1,1.544-4.885.513.513,0,1,1,.84.591,7.427,7.427,0,0,0-1.357,4.294c0,.181.007.364.019.546.069.968.1,1.985.1,3.022a40.167,40.167,0,0,1-1.42,11.079A.514.514,0,0,1,164.436,287.688Zm17.349-13.406a.514.514,0,0,1-.513-.5c-.028-.9-.065-1.476-.076-1.632a7.5,7.5,0,0,0-12.469-5.059.513.513,0,1,1-.685-.765,8.422,8.422,0,0,1,5.067-2.141,8.521,8.521,0,0,1,9.111,7.892c.011.163.05.757.078,1.673a.513.513,0,0,1-.5.529Z" transform="translate(-163.923 -264.167)" fill="#3a325e"/>
    </g>
    <g id="Group_15441" data-name="Group 15441" transform="translate(9.111 10.678)">
      <path id="Path_401" data-name="Path 401" d="M197.79,312.71a.514.514,0,0,1-.5-.644,44.531,44.531,0,0,0,1.173-6.643c.074-.7.137-1.423.187-2.152a.513.513,0,1,1,1.024.071c-.051.742-.115,1.478-.19,2.189a45.552,45.552,0,0,1-1.2,6.8A.513.513,0,0,1,197.79,312.71Zm-10.805-1.06a.514.514,0,0,1-.485-.681,39.248,39.248,0,0,0,1.65-11.387.507.507,0,0,1,.522-.505.513.513,0,0,1,.5.522,40.277,40.277,0,0,1-1.706,11.7A.514.514,0,0,1,186.984,311.65Zm12.282-9.676h-.021a.514.514,0,0,1-.492-.534c.038-.93.057-1.878.057-2.818,0-2.137-.1-3.542-.1-3.6a4.8,4.8,0,0,0-2.406-3.845.513.513,0,1,1,.509-.892,5.828,5.828,0,0,1,2.921,4.663c0,.059.107,1.5.107,3.674,0,.954-.019,1.916-.058,2.86A.514.514,0,0,1,199.267,301.974Zm-10.609-3.718a.513.513,0,0,1-.513-.5c-.015-.687-.045-1.35-.089-1.969-.01-.143-.015-.287-.015-.429a5.849,5.849,0,0,1,6.772-5.771l.1.017a.513.513,0,0,1-.18,1.011l-.083-.014a4.825,4.825,0,0,0-5.584,4.756c0,.117,0,.237.013.356.046.636.076,1.316.091,2.02a.514.514,0,0,1-.5.524Z" transform="translate(-186.471 -289.512)" fill="#3a325e"/>
    </g>
    <g id="Group_15442" data-name="Group 15442" transform="translate(11.629 13.349)">
      <path id="Path_402" data-name="Path 402" d="M216.3,335.795a.514.514,0,0,1-.492-.661,40.412,40.412,0,0,0,1.394-7.3c.156-1.481.258-3.039.3-4.631a.513.513,0,1,1,1.027.029c-.046,1.617-.15,3.2-.309,4.709a41.428,41.428,0,0,1-1.432,7.49A.513.513,0,0,1,216.3,335.795Zm-5.408-.565a.514.514,0,0,1-.485-.683c1.548-4.435,1.791-10.051,1.8-13a.514.514,0,0,1,.513-.512h0a.514.514,0,0,1,.512.515c-.008,3.017-.259,8.763-1.856,13.34A.514.514,0,0,1,210.9,335.23Zm7.154-13.35a.513.513,0,0,1-.513-.513v-.051c0-1.813-.074-3.067-.1-3.408a2.157,2.157,0,0,0-4.309.145q0,.077.006.156c.032.448.057.943.074,1.471a.513.513,0,0,1-1.026.033c-.017-.515-.041-1-.072-1.431q-.008-.115-.008-.229a3.184,3.184,0,0,1,6.36-.227c.024.363.1,1.646.1,3.49v.051A.513.513,0,0,1,218.051,321.88Z" transform="translate(-210.383 -314.87)" fill="#3a325e"/>
    </g>
    <g id="Group_15443" data-name="Group 15443" transform="translate(14.262 16.019)">
      <path id="Path_403" data-name="Path 403" d="M235.9,358.413a.514.514,0,0,1-.488-.675A46.286,46.286,0,0,0,237.238,344c0-1.934-.089-3.2-.09-3.216a.513.513,0,0,1,1.024-.073c0,.053.093,1.315.093,3.289a47.3,47.3,0,0,1-1.875,14.062A.514.514,0,0,1,235.9,358.413Z" transform="translate(-235.389 -340.232)" fill="#3a325e"/>
    </g>
  </g>
</svg>
