<svg id="Group_225" data-name="Group 225" xmlns="http://www.w3.org/2000/svg" width="21.715" height="23.193" viewBox="0 0 21.715 23.193">
  <g id="surface1" transform="translate(3.843 5.614)">
    <path id="Path_1564" data-name="Path 1564" d="M15.157,7.633a6.027,6.027,0,0,1-1.724.473,3.017,3.017,0,0,0,1.319-1.661,6.01,6.01,0,0,1-1.907.728A3,3,0,0,0,7.734,9.91,8.521,8.521,0,0,1,1.549,6.774a3.005,3.005,0,0,0,.929,4.008,2.975,2.975,0,0,1-1.36-.375v.038a3,3,0,0,0,2.407,2.943,2.975,2.975,0,0,1-.79.1,2.937,2.937,0,0,1-.565-.054,3,3,0,0,0,2.8,2.083A6.006,6.006,0,0,1,1.246,16.8a6.271,6.271,0,0,1-.714-.04,8.492,8.492,0,0,0,4.6,1.346,8.479,8.479,0,0,0,8.538-8.535c0-.132,0-.261-.009-.391a6,6,0,0,0,1.5-1.552" transform="translate(-0.531 -6.227)" fill="#3a325e"/>
  </g>
  <path id="Path_1566" data-name="Path 1566" d="M653.959,390.262H640.414a4.2,4.2,0,0,1-4.085-4.289V371.358a4.2,4.2,0,0,1,4.085-4.289h13.545a4.2,4.2,0,0,1,4.085,4.289v14.615A4.2,4.2,0,0,1,653.959,390.262Zm-13.791-21.087a1.877,1.877,0,0,0-1.828,1.919v15.144a1.877,1.877,0,0,0,1.828,1.919H654.2a1.877,1.877,0,0,0,1.827-1.919V371.094a1.877,1.877,0,0,0-1.827-1.919Z" transform="translate(-636.329 -367.069)" fill="#3a325e"/>
</svg>
