<svg xmlns="http://www.w3.org/2000/svg" width="23.738" height="25.027" viewBox="0 0 23.738 25.027">
  <g id="Group_250" data-name="Group 250" transform="translate(0)">
    <path id="Path_15" data-name="Path 15" d="M648.282,388.24c-6.489,0-11.748,5.521-11.748,12.334a12.718,12.718,0,0,0,1.513,6.054l-1.758,6.639,6.327-1.888a11.256,11.256,0,0,0,5.666,1.527c6.487,0,11.746-5.521,11.746-12.332S654.769,388.24,648.282,388.24Zm0,22.559a9.358,9.358,0,0,1-5.474-1.768l-3.584,1.1,1.007-3.8a10.512,10.512,0,0,1-1.691-5.756,9.752,9.752,0,1,1,9.742,10.226Z" transform="translate(-636.289 -388.24)" fill="#3a325e"/>
    <path id="Path_16" data-name="Path 16" d="M651.279,400.28c-.305-.154-1.743-.91-2.01-1.02-.294-.084-.479-.154-.678.166a13.2,13.2,0,0,1-.931,1.188c-.174.224-.347.237-.626.1a7.383,7.383,0,0,1-2.382-1.535,9.088,9.088,0,0,1-1.65-2.11.507.507,0,0,1,.12-.656,3.763,3.763,0,0,0,.452-.531.539.539,0,0,0,.105-.14,3.152,3.152,0,0,0,.187-.363.5.5,0,0,0-.027-.531c-.053-.154-.651-1.691-.9-2.293-.239-.628-.492-.515-.651-.515-.188,0-.374-.028-.573-.028a1,1,0,0,0-.786.391,3.383,3.383,0,0,0-1.052,2.57,3.343,3.343,0,0,0,.174,1.034,7.024,7.024,0,0,0,1.038,2.138c.147.209,2.037,3.409,5.043,4.638s3.02.811,3.553.769a2.941,2.941,0,0,0,2-1.467,2.657,2.657,0,0,0,.16-1.467,1.66,1.66,0,0,0-.559-.335Z" transform="translate(-633.889 -385.403)" fill="#3a325e" fill-rule="evenodd"/>
  </g>
</svg>
